<svg id="Group_2513" data-name="Group 2513" xmlns="http://www.w3.org/2000/svg" width="27.651" height="35.113" viewBox="0 0 27.651 35.113">
  <g id="Group_2318" data-name="Group 2318">
    <path id="Subtraction_21" data-name="Subtraction 21" d="M25.06,35.113H2.591A2.594,2.594,0,0,1,.764,34.36,2.555,2.555,0,0,1,0,32.55V2.563A2.555,2.555,0,0,1,.764.753,2.593,2.593,0,0,1,2.591,0H19.05V6.554a2.235,2.235,0,0,0,2.244,2.224h6.357V32.55a2.555,2.555,0,0,1-.764,1.81A2.594,2.594,0,0,1,25.06,35.113ZM26.755,7.5H21.292a.952.952,0,0,1-.955-.947V.945L26.755,7.5Z" fill="#2362c7"/>
  </g>
  <g id="Group_2322" data-name="Group 2322" transform="translate(6.704 10.552)">
    <path id="Path_1835" data-name="Path 1835" d="M101.707,401.934H89.89a.718.718,0,0,0,0,1.436h11.825a.718.718,0,1,0-.007-1.436Zm0,0" transform="translate(-89.172 -387.474)" fill="#fff" stroke="#fff" stroke-width="0.3"/>
    <path id="Path_1836" data-name="Path 1836" d="M119.637,175.675l2.958,3.181v-7.84a.718.718,0,1,1,1.436,0v7.84l2.958-3.181a.716.716,0,0,1,1.048.976l-4.207,4.516a.713.713,0,0,1-1.048,0l-4.207-4.516a.716.716,0,0,1,.036-1.012A.732.732,0,0,1,119.637,175.675Zm0,0" transform="translate(-116.688 -170.297)" fill="#fff" stroke="#fff" stroke-width="0.3"/>
  </g>
</svg>
