<svg xmlns="http://www.w3.org/2000/svg" width="27.603" height="35.051" viewBox="0 0 27.603 35.051">
  <g id="Group_2776" data-name="Group 2776" transform="translate(0 0.184)">
    <g id="Group_2318" data-name="Group 2318" transform="translate(0 -0.184)">
      <path id="Subtraction_21" data-name="Subtraction 21" d="M25.016,35.051H2.586A2.589,2.589,0,0,1,.763,34.3,2.55,2.55,0,0,1,0,32.493V2.558A2.55,2.55,0,0,1,.763.751,2.589,2.589,0,0,1,2.586,0H19.017V6.543a2.231,2.231,0,0,0,2.24,2.22H27.6v23.73a2.551,2.551,0,0,1-.763,1.807A2.589,2.589,0,0,1,25.016,35.051ZM26.708,7.488H21.254a.95.95,0,0,1-.954-.945V.943l6.407,6.544Z" fill="#2362c7"/>
    </g>
    <g id="noun_Eye_2501659" transform="translate(4.943 12.789)">
      <path id="Path_1917" data-name="Path 1917" d="M.2,5.3c4.832-7.113,12.952-7.046,17.783.067a.909.909,0,0,1,0,1.141C13.153,13.621,5.033,13.554.2,6.441A.909.909,0,0,1,.2,5.3ZM9.127,1.475A4.411,4.411,0,0,1,13.489,5.9,4.4,4.4,0,0,1,4.7,5.9,4.425,4.425,0,0,1,9.127,1.475Z" transform="translate(0 0.002)" fill="#fff" fill-rule="evenodd"/>
    </g>
  </g>
</svg>
