<svg id="Group_2512" data-name="Group 2512" xmlns="http://www.w3.org/2000/svg" width="27.458" height="34.867" viewBox="0 0 27.458 34.867">
  <g id="Group_2318" data-name="Group 2318" transform="translate(0 0)">
    <path id="Subtraction_21" data-name="Subtraction 21" d="M24.886,34.867H2.573A2.576,2.576,0,0,1,.759,34.12,2.537,2.537,0,0,1,0,32.322V2.545A2.537,2.537,0,0,1,.759.747,2.575,2.575,0,0,1,2.573,0H18.917V6.509a2.22,2.22,0,0,0,2.228,2.208h6.313V32.322a2.537,2.537,0,0,1-.759,1.8A2.576,2.576,0,0,1,24.886,34.867ZM26.569,7.449H21.143a.945.945,0,0,1-.949-.94V.939l6.374,6.51Z" fill="#2362c7"/>
  </g>
  <g id="noun_replace_418805" transform="translate(3.497 10.654)">
    <g id="Group_2515" data-name="Group 2515" transform="translate(0 0)">
      <g id="Group_2514" data-name="Group 2514" transform="translate(0 0)">
        <path id="Path_1918" data-name="Path 1918" d="M24.779,13.911H28.6a2.864,2.864,0,0,1,2.868,2.87V22.5h1.911V16.781A4.775,4.775,0,0,0,28.6,12H24.779l-.58.448-.158.58.158.554ZM28.6,27.285H24.779a2.872,2.872,0,0,1-2.868-2.866V19.642H20v4.777A4.783,4.783,0,0,0,24.779,29.2H28.6l.481-.347v-1.16l-.481-.4Z" transform="translate(-17.134 -12)" fill="#fff" fill-rule="evenodd"/>
        <path id="Path_1919" data-name="Path 1919" d="M12.5,36.28a.955.955,0,0,0-1.351,0L8.28,39.146A.955.955,0,0,0,9.631,40.5l2.19-2.108,2.19,2.108a.955.955,0,0,0,1.351-1.351Z" transform="translate(-8 -30.268)" fill="#fff" fill-rule="evenodd"/>
        <path id="Path_1920" data-name="Path 1920" d="M59.821,42.388l-2.19-2.108a.955.955,0,0,0-1.351,1.351L59.146,44.5a.955.955,0,0,0,1.351,0l2.866-2.866a.955.955,0,0,0-1.351-1.351Z" transform="translate(-44.536 -33.313)" fill="#fff" fill-rule="evenodd"/>
      </g>
    </g>
  </g>
</svg>
