<svg xmlns="http://www.w3.org/2000/svg" width="254" height="363" viewBox="0 0 254 363">
  <g id="Group_3294" data-name="Group 3294" transform="translate(-31 -73)">
    <g id="Group_2991" data-name="Group 2991" transform="translate(-1116 -229)">
      <g id="Group_2779" data-name="Group 2779" transform="translate(1154 302.954)">
        <g id="Group_1800" data-name="Group 1800" transform="translate(0 0)">
          <text id="Turn_your_device_to_the_custodian_to_collect_their_electronic_signature" data-name="Turn your device to the
custodian to collect their
electronic signature" transform="translate(120 18.046)" fill="#707070" font-size="20" font-family="Montserrat-Regular, Montserrat"><tspan x="-117.85" y="0">Turn your device to the </tspan><tspan x="-126.72" y="24">custodian to collect their </tspan><tspan x="-100.2" y="48">electronic signature</tspan></text>
        </g>
      </g>
      <g id="noun_hands_holding_smartphone_1264229" data-name="noun_hands holding smartphone_1264229" transform="translate(1224.962 392.827)">
        <path id="Path_1986" data-name="Path 1986" d="M22.524,9.219a1.451,1.451,0,0,1,1.45,1.45v5.525a1.45,1.45,0,1,1-2.9,0V10.669A1.446,1.446,0,0,1,22.524,9.219Z" transform="translate(65.92 36.629)" fill="#4ba9d9" stroke="#4ba9d9" stroke-width="3"/>
        <ellipse id="Ellipse_681" data-name="Ellipse 681" cx="1.59" cy="1.59" rx="1.59" ry="1.59" transform="translate(86.853 37.071)" fill="#4ba9d9" stroke="#4ba9d9" stroke-width="3"/>
        <ellipse id="Ellipse_682" data-name="Ellipse 682" cx="2.738" cy="2.738" rx="2.738" ry="2.738" transform="translate(6.403 47.218)" fill="#4ba9d9" stroke="#4ba9d9" stroke-width="3"/>
        <path id="Path_1987" data-name="Path 1987" d="M7.321,22.662H24.165c1.425-6.391,3.761-8.875,5.657-10.9.315-.335.617-.659.907-.99l.012-7.447A1.653,1.653,0,0,1,32.4,1.677h0a1.659,1.659,0,0,1,1.652,1.661l-.012,8.039a1.68,1.68,0,0,1-.356,1.027c-.451.567-.94,1.089-1.45,1.632a16.549,16.549,0,0,0-4.668,8.66l37.39.145a1.565,1.565,0,0,1,.191.041,1.758,1.758,0,0,1,.356.075,1.491,1.491,0,0,1,.29.153,1.256,1.256,0,0,1,.195.1c3.7,2.994,5.165,5.318,7.852,10.3,1.479,2.742,3.04,3.222,4.643,3.5a4.736,4.736,0,0,0,1.723-.025l.162-.025a2.55,2.55,0,0,0,1.412-2.568,2.609,2.609,0,0,0-.017-.431c-.145-1.354-1.292-2.808-2.452-4.183a1.656,1.656,0,0,1-.389-1.069V24.34c-.041-2.887-5.935-10.781-13.228-11.493A1.658,1.658,0,0,1,64.2,11.2l0-7.852a1.658,1.658,0,0,1,1.652-1.657h0A1.659,1.659,0,0,1,67.5,3.346l0,6.436c7.07,1.466,13.2,8.151,14.479,12.9h9.662A7.26,7.26,0,0,1,98.9,29.931V73a7.26,7.26,0,0,1-7.252,7.252H69.564a3.455,3.455,0,0,1-.733.787L63.965,84.9a3.9,3.9,0,0,1-5.343-.613h0l-.961-1.213-4.179,3.317a3.93,3.93,0,0,1-5.384-.625L46.459,83.7l-3.073,2.439a3.9,3.9,0,0,1-5.343-.617l-1.7-2.125c-.066-.083-.128-.17-.186-.257L33.438,85.3a3.979,3.979,0,0,1-5.459-.625l-1.748-2.207a3.83,3.83,0,0,1-.837-2.212H7.321A7.26,7.26,0,0,1,.069,73.008V29.919A7.256,7.256,0,0,1,7.321,22.662ZM82.175,76.946h9.472A3.947,3.947,0,0,0,95.59,73V29.914a3.947,3.947,0,0,0-3.943-3.943H82.229V28.1a10.79,10.79,0,0,1,2.829,5.5,4.508,4.508,0,0,1,.021.895,5.633,5.633,0,0,1-2.9,5.227V76.946Zm-20.96,5.289c.091.116.232.178.688.079l4.866-3.86c.162-.128-.029-.688-.05-.75-.447-1.288-1.628-2.253-2.249-2.149L60.4,78.781a7.076,7.076,0,0,1-.033,2.386Zm-12.247-.683,1.715,2.158c.1.133.249.195.737.087l4.941-3.922c.17-.137-.008-.679-.046-.787-.46-1.317-1.768-2.245-2.319-2.191l-4.941,3.918A.6.6,0,0,0,48.968,81.552Zm-10.031-.211h0l1.69,2.133a.353.353,0,0,0,.319.133,1.645,1.645,0,0,0,.373-.05L45.2,80.475a6.524,6.524,0,0,1,.638-2.158c-.555-.936-1.358-1.628-1.955-1.52L38.838,80.98A.492.492,0,0,0,38.938,81.341Zm-10.114-.932h0l1.752,2.207a.415.415,0,0,0,.369.153,1.861,1.861,0,0,0,.435-.062l4.295-3.4a6.987,6.987,0,0,1,.683-1.537c-.5-1.309-1.785-2.253-2.394-2.162l-5.044,4a.58.58,0,0,0-.1.8Zm-10.4-3.462h8.515l4.966-3.939c2.257-1.785,5.968.07,7.389,3.2l2.535-2.013c2.05-1.615,5.338-.24,6.941,2.617l3.168-2.51c1.884-1.487,4.771-.489,6.494,1.814l3.98-3.16c2.336-1.851,6.27.315,7.434,3.657.037.112.075.224.1.335h8.908V40.372a8,8,0,0,1-.948-.1,9.049,9.049,0,0,1-6.987-5.189c-2.547-4.726-3.823-6.61-6.585-8.925l-44.9-.178H18.424ZM3.378,73a3.947,3.947,0,0,0,3.943,3.943h7.79V25.972H7.321a3.947,3.947,0,0,0-3.943,3.943Z" transform="translate(-0.069 -1.677)" fill="#4ba9d9" stroke="#4ba9d9" stroke-width="3"/>
      </g>
      <path id="noun_Hand_402441" d="M61.122,35.8l-.473,11.771c0,.649-.828,1.218-1.773,1.218q-5.675,0-8.867-1.948V65.188c0,2.841-3.428,5.2-7.566,5.2a9.2,9.2,0,0,1-4.374-.974c-1.182,2.111-4.02,3.653-7.33,3.653-4.138,0-7.566-2.354-7.566-5.2v-.325a10.784,10.784,0,0,1-4.02.812c-4.138,0-7.566-2.354-7.566-5.2V56.908a10.784,10.784,0,0,1-4.02.812C3.428,57.719,0,55.365,0,52.524V24.76C0,14.288,2.6,9.742,4.492,6.494,5.557,4.627,6.384,3.247,6.384,1.3c0-.649.828-1.218,1.773-1.218S9.931.649,9.931,1.3c0,2.435-.946,4.14-2.128,6.089C6.029,10.472,3.547,14.775,3.547,24.76V52.524c0,1.542,1.773,2.76,4.02,2.76s4.02-1.218,4.02-2.76V32.148c0-.649.828-1.218,1.773-1.218s1.773.568,1.773,1.218V63.158c0,1.542,1.773,2.76,4.02,2.76s4.02-1.218,4.02-2.76V33.69c0-.649.828-1.218,1.773-1.218s1.773.568,1.773,1.218V67.867c0,1.542,1.773,2.76,4.02,2.76s4.02-1.218,4.02-2.76V33.69c0-.649.828-1.218,1.773-1.218s1.773.568,1.773,1.218v31.5c0,1.542,1.773,2.76,4.02,2.76s4.02-1.218,4.02-2.76V42.863h0a14.333,14.333,0,0,1-1.182-6.251V26.384a13.113,13.113,0,0,1-9.694-7.063c-.355-.649.118-1.3,1.064-1.542a1.984,1.984,0,0,1,2.246.731c1.419,2.6,4.02,5.6,8.157,5.6.946,0,1.773.568,1.773,1.218V36.612c0,7.631,3.783,9.417,8.394,9.66L57.575,35.8V24.679c0-10.229-5.675-14.207-10.285-17.454-2.483-1.786-4.847-3.41-5.793-5.764C41.26.812,41.851.162,42.8,0h.473a1.984,1.984,0,0,1,1.773.893c.591,1.7,2.483,3,4.847,4.627,4.729,3.328,11.35,7.875,11.35,19.159Z" transform="matrix(-1, 0.017, -0.017, -1, 1305.512, 560.089)" fill="#2362c7" stroke="#2362c7" stroke-width="2"/>
    </g>
    <g id="Group_2992" data-name="Group 2992" transform="translate(38 310.954)">
      <g id="Group_1800-2" data-name="Group 1800" transform="translate(0 0)">
        <text id="Tap_next_if_you_re_the_owner_and_custodian_of_this_document" data-name="Tap next if you&apos;re the
 owner and custodian
 of this document" transform="translate(120 74.046)" fill="#707070" font-size="19" font-family="Montserrat-Regular, Montserrat"><tspan x="-98.676" y="0">Tap next if you are the</tspan><tspan x="-103.18" y="23" xml:space="preserve"> owner and custodian</tspan><tspan x="-84.398" y="46" xml:space="preserve"> of this document</tspan></text>
      </g>
    </g>
  </g>
</svg>
