<svg id="Group_1697" data-name="Group 1697" xmlns="http://www.w3.org/2000/svg" width="23.719" height="28.677" viewBox="0 0 23.719 28.677">
  <g id="Group_1032" data-name="Group 1032" transform="translate(5.627)">
    <g id="Group_1031" data-name="Group 1031" transform="translate(0)">
      <path id="Path_1134" data-name="Path 1134" d="M140.928,13.188l-5.746,6.738a.805.805,0,0,1-1.235,0L128.2,13.188a.857.857,0,0,1-.13-.9.821.821,0,0,1,.747-.494H132.1V.842A.832.832,0,0,1,132.923,0h3.283a.832.832,0,0,1,.821.842V11.791h3.283a.818.818,0,0,1,.747.494A.857.857,0,0,1,140.928,13.188Z" transform="translate(-127.998 0)" fill="#fff"/>
    </g>
  </g>
  <g id="Group_1034" data-name="Group 1034" transform="translate(0 20.255)">
    <g id="Group_1033" data-name="Group 1033">
      <path id="Path_1135" data-name="Path 1135" d="M36.556,352v5.053H19.162V352H16v6.738a1.635,1.635,0,0,0,1.581,1.684H38.137a1.634,1.634,0,0,0,1.581-1.684V352Z" transform="translate(-16 -352)" fill="#fff"/>
    </g>
  </g>
</svg>
