<svg id="Group_1331" data-name="Group 1331" xmlns="http://www.w3.org/2000/svg" width="49.764" height="63.193" viewBox="0 0 49.764 63.193">
  <g id="Group_977" data-name="Group 977" transform="translate(0 0)">
    <path id="Subtraction_21" data-name="Subtraction 21" d="M45.1,63.193H4.663a4.668,4.668,0,0,1-3.287-1.355A4.6,4.6,0,0,1,0,58.58V4.613A4.6,4.6,0,0,1,1.375,1.354,4.667,4.667,0,0,1,4.663,0H34.285V11.8a4.023,4.023,0,0,0,4.038,4H49.764V58.58a4.6,4.6,0,0,1-1.376,3.258A4.668,4.668,0,0,1,45.1,63.193ZM48.152,13.5H38.319A1.713,1.713,0,0,1,36.6,11.8V1.7L48.151,13.5Z" transform="translate(0 0)" fill="#c2c2c2"/>
    <g id="Group_1102" data-name="Group 1102" transform="translate(11.928 21.727)">
      <path id="Path_1243" data-name="Path 1243" d="M13.119,0A13.119,13.119,0,1,1,0,13.119,13.119,13.119,0,0,1,13.119,0Z" fill="#818181"/>
      <g id="Group_1071" data-name="Group 1071" transform="translate(7.706 7.764)">
        <line id="Line_276" data-name="Line 276" y2="11.747" transform="translate(5.873)" fill="none" stroke="#fcfcfc" stroke-linecap="round" stroke-width="3"/>
        <line id="Line_277" data-name="Line 277" x2="11.213" transform="translate(0 5.873)" fill="none" stroke="#fcfcfc" stroke-linecap="round" stroke-width="3"/>
      </g>
    </g>
  </g>
</svg>
