<svg xmlns="http://www.w3.org/2000/svg" width="1072" height="478" viewBox="0 0 1072 478">
  <g id="Group_2867" data-name="Group 2867" transform="translate(-424 -243)">
    <g id="Group_1762" data-name="Group 1762" transform="translate(344 -43)">
      <rect id="Rectangle_1061" data-name="Rectangle 1061" width="901" height="67" rx="33.5" transform="translate(157 286)" fill="#eef5f6"/>
      <text id="Notarizing_a_Certified_Copy_by_Document_Custodian_with_MyPass" data-name="Notarizing a Certified Copy by Document Custodian with MyPass" transform="translate(195 328)" fill="#4ba9d9" font-size="25" font-family="Montserrat-Medium, Montserrat" font-weight="500"><tspan x="0" y="0">Notarizing a Certified Copy by Document Custodian with MyPass</tspan></text>
    </g>
    <g id="Group_2787" data-name="Group 2787" transform="translate(-9 -23)">
      <g id="Group_1920" data-name="Group 1920" transform="translate(327 74)">
        <g id="Group_1800" data-name="Group 1800" transform="translate(-498 -230)">
          <text id="Fill_in_your_notary_information_and_upload_your_PEM_key_and_notary_seal" data-name="Fill in your notary information and upload your PEM key and notary seal" transform="translate(634 775)" fill="#707070" font-size="25" font-family="Montserrat-Regular, Montserrat"><tspan x="44.875" y="24">Fill in your notary </tspan><tspan x="4.112" y="54">information and upload </tspan><tspan x="40.388" y="84">your PEM key and </tspan><tspan x="84.762" y="114">notary seal</tspan></text>
        </g>
        <g id="Group_2776" data-name="Group 2776" transform="translate(-16552.004 -4571)">
          <g id="Rectangle_1258" data-name="Rectangle 1258" transform="translate(16725.004 4958)" fill="#fff" stroke="#888" stroke-width="7">
            <rect width="115" height="143" rx="9" stroke="none"/>
            <rect x="3.5" y="3.5" width="108" height="136" rx="5.5" fill="none"/>
          </g>
          <g id="Group_1843" data-name="Group 1843" transform="translate(16725 4943)">
            <g id="noun_credential_1655181" transform="translate(0 0)">
              <path id="Path_1530" data-name="Path 1530" d="M40.677,132.52h17.93a2.629,2.629,0,0,0,0-5.258H40.677a2.629,2.629,0,0,0,0,5.258Z" transform="translate(-24.833 0.367)" fill="#888"/>
              <path id="Path_1531" data-name="Path 1531" d="M40.677,143.142H90.152a2.629,2.629,0,1,0,0-5.258H40.677a2.629,2.629,0,1,0,0,5.258Z" transform="translate(-24.833 0.914)" fill="#888"/>
              <circle id="Ellipse_523" data-name="Ellipse 523" cx="3.747" cy="3.747" r="3.747" transform="translate(74.178 136.563)" fill="#888"/>
              <circle id="Ellipse_524" data-name="Ellipse 524" cx="3.747" cy="3.747" r="3.747" transform="translate(84.693 136.563)" fill="#888"/>
              <circle id="Ellipse_525" data-name="Ellipse 525" cx="3.747" cy="3.747" r="3.747" transform="translate(95.208 136.563)" fill="#888"/>
              <path id="Path_1532" data-name="Path 1532" d="M102.583,129.891a2.628,2.628,0,0,0-2.629-2.629H64.729a2.629,2.629,0,0,0,0,5.258H99.954A2.629,2.629,0,0,0,102.583,129.891Z" transform="translate(-23.594 0.367)" fill="#888"/>
              <path id="Path_1533" data-name="Path 1533" d="M121.568,127.262h-16a2.629,2.629,0,1,0,0,5.257h16a2.629,2.629,0,0,0,0-5.257Z" transform="translate(-21.491 0.367)" fill="#888"/>
              <path id="Path_1535" data-name="Path 1535" d="M132.092,20.711H94.857l.7,7.361h36.54a1.95,1.95,0,0,1,1.945,1.956v123.5a1.95,1.95,0,0,1-1.945,1.956H34.8a1.952,1.952,0,0,1-1.956-1.956V30.027A1.952,1.952,0,0,1,34.8,28.072H67.908l.7-7.361H34.8a9.321,9.321,0,0,0-9.316,9.316v123.5a9.321,9.321,0,0,0,9.316,9.316h97.3a9.318,9.318,0,0,0,9.306-9.316V30.027A9.318,9.318,0,0,0,132.092,20.711Z" transform="translate(-25.48 -5.12)" fill="#888"/>
              <path id="Path_1536" data-name="Path 1536" d="M124.9,38.631H40.679A2.63,2.63,0,0,0,38.05,41.26v82.68a2.63,2.63,0,0,0,2.629,2.629H124.9a2.623,2.623,0,0,0,2.629-2.629V41.26A2.623,2.623,0,0,0,124.9,38.631Zm-2.629,82.68H43.308V43.889h78.968Z" transform="translate(-24.833 -4.197)" fill="#888"/>
              <path id="Path_1537" data-name="Path 1537" d="M70.789,35.572H88.2a1.88,1.88,0,0,0,1.863-2.063L87.61,7.591a1.877,1.877,0,0,0-1.863-1.707H73.24a1.877,1.877,0,0,0-1.863,1.707L68.925,33.509A1.88,1.88,0,0,0,70.789,35.572Zm8.7-24.61a4.486,4.486,0,1,1-4.454,4.486A4.47,4.47,0,0,1,79.493,10.962Z" transform="translate(-23.243 -5.884)" fill="#888"/>
            </g>
            <g id="Group_2786" data-name="Group 2786" transform="translate(34.004 46)">
              <path id="Union_69" data-name="Union 69" d="M10.345,62.482a10.046,10.046,0,0,1-7.453-2.9A10.74,10.74,0,0,1,0,51.736c0-1.255.04-2.5.117-3.69A39.336,39.336,0,0,1,.592,44.1,32.976,32.976,0,0,1,1.5,40.128a20.385,20.385,0,0,1,1.532-3.7A13.893,13.893,0,0,1,5.343,33.22,10.1,10.1,0,0,1,8.662,31a10.825,10.825,0,0,1,4.234-.817,4.148,4.148,0,0,1,2.3,1.037c.7.485,1.5,1.038,2.394,1.643a13.246,13.246,0,0,0,3.092,1.453,11.319,11.319,0,0,0,7.57,0,13.345,13.345,0,0,0,3.094-1.453c.9-.612,1.7-1.165,2.391-1.643a4.158,4.158,0,0,1,2.3-1.038A10.848,10.848,0,0,1,40.263,31a10.132,10.132,0,0,1,3.317,2.221,13.928,13.928,0,0,1,2.309,3.207,20.348,20.348,0,0,1,1.532,3.7,32.8,32.8,0,0,1,.912,3.969,39.476,39.476,0,0,1,.475,3.948h0c.078,1.19.119,2.432.119,3.691a10.736,10.736,0,0,1-2.893,7.849,10.045,10.045,0,0,1-7.452,2.9ZM14.107,25.69A15.058,15.058,0,0,1,9.968,15.048a15.057,15.057,0,0,1,4.138-10.64,13.517,13.517,0,0,1,19.974,0,15.057,15.057,0,0,1,4.138,10.64,15.057,15.057,0,0,1-4.137,10.641,13.517,13.517,0,0,1-19.975,0Z" transform="translate(0 0)" fill="#4ba9d9"/>
            </g>
          </g>
        </g>
      </g>
      <g id="Group_1930" data-name="Group 1930" transform="translate(35 -3141)">
        <path id="Path_1989" data-name="Path 1989" d="M23,0A23,23,0,1,1,0,23,23,23,0,0,1,23,0Z" transform="translate(438 3546)" fill="#4ba9d9"/>
        <text id="_1" data-name="1" transform="translate(461.5 3581)" fill="#fff" font-size="30" font-family="Helvetica-Bold, Helvetica" font-weight="700"><tspan x="-8.342" y="0">1</tspan></text>
      </g>
      <g id="Group_2791" data-name="Group 2791" transform="translate(482.662 32.22)">
        <path id="noun_identification_9042" d="M99.373,22.435A3.436,3.436,0,0,0,95.937,19H5.436A3.436,3.436,0,0,0,2,22.435v55a3.436,3.436,0,0,0,3.436,3.434h90.5a3.436,3.436,0,0,0,3.435-3.435ZM37.5,61.6H10.114c-.908-3.592,1.41-5.573,5.166-6.439,3.677-.846,6.264-2.515,3.963-4.818-6.729-6.73-1.7-14.919,4.537-14.919s11.321,8.19,4.592,14.919c-2.3,2.3.232,3.972,3.907,4.818C36.036,56.028,38.409,58.009,37.5,61.6Zm53.758,0H43.586V57.543H91.259Zm0-10.143H43.586V47.4H91.259Zm0-10.143H43.586V37.257H91.259Z" transform="translate(159.814 438.237)" fill="#327495"/>
        <rect id="Rectangle_1399" data-name="Rectangle 1399" width="88" height="31" transform="translate(167.338 471.78)" fill="#327495"/>
        <g id="noun_Seal_147135" transform="translate(168.731 472.612)">
          <path id="Path_1946" data-name="Path 1946" d="M46.389,53.469a.772.772,0,0,1-.431-.144l-3.3-2.392-3.3,2.392a.717.717,0,0,1-.861,0,.753.753,0,0,1-.239-.813L39.5,48.637l-3.3-2.392a.753.753,0,0,1-.239-.813.719.719,0,0,1,.67-.478H40.7l1.244-3.875a.708.708,0,0,1,1.339,0l1.244,3.875h4.066a.719.719,0,0,1,.67.478.753.753,0,0,1-.239.813l-3.3,2.392,1.244,3.875a.753.753,0,0,1-.239.813A.372.372,0,0,1,46.389,53.469Zm-3.731-4.162a.772.772,0,0,1,.431.144l1.961,1.435-.765-2.3a.753.753,0,0,1,.239-.813l1.961-1.435H44.093a.719.719,0,0,1-.67-.478l-.765-2.248-.765,2.3a.719.719,0,0,1-.67.478H38.83l1.961,1.435a.753.753,0,0,1,.239.813l-.765,2.3L42.227,49.5A.584.584,0,0,1,42.657,49.307Z" transform="translate(-27.192 -31.365)" fill="#f6f6f6" stroke="#f6f6f6" stroke-width="0.2"/>
          <g id="Group_2719" data-name="Group 2719" transform="translate(0 0)">
            <path id="Path_1947" data-name="Path 1947" d="M39.625,40.121l2.321-1.767a2.81,2.81,0,0,0,.977-3.041l-.855-2.835a1.7,1.7,0,0,1,0-.9l.855-2.835a2.81,2.81,0,0,0-.977-3.041l-2.321-1.767a1.9,1.9,0,0,1-.529-.74L38.118,20.4a2.772,2.772,0,0,0-2.566-1.89l-2.892-.041a1.271,1.271,0,0,1-.855-.288l-2.4-1.685a2.8,2.8,0,0,0-3.177,0l-2.4,1.685a1.527,1.527,0,0,1-.855.288l-2.932.041A2.857,2.857,0,0,0,17.47,20.4l-.977,2.794a1.563,1.563,0,0,1-.529.74L13.641,25.7a2.791,2.791,0,0,0-.937,3.041l.855,2.835a1.7,1.7,0,0,1,0,.9L12.7,35.313a2.81,2.81,0,0,0,.977,3.041L16,40.121a1.9,1.9,0,0,1,.529.74l.977,2.794a2.772,2.772,0,0,0,2.566,1.89l2.932.041a1.271,1.271,0,0,1,.855.288l2.4,1.685a2.7,2.7,0,0,0,1.588.493,2.79,2.79,0,0,0,1.588-.493l2.4-1.685a1.527,1.527,0,0,1,.855-.288l2.932-.041a2.857,2.857,0,0,0,2.566-1.89l.977-2.794A1.036,1.036,0,0,1,39.625,40.121Zm-.733-.986a2.538,2.538,0,0,0-.937,1.315l-.977,2.794a1.493,1.493,0,0,1-1.425,1.027l-2.932.082a2.544,2.544,0,0,0-1.507.493l-2.4,1.685a1.521,1.521,0,0,1-1.751,0l-2.4-1.685a2.544,2.544,0,0,0-1.507-.493l-2.973-.082a1.549,1.549,0,0,1-1.425-1.027l-.977-2.794a2.538,2.538,0,0,0-.937-1.315l-2.321-1.767a1.509,1.509,0,0,1-.529-1.685l.855-2.835a2.688,2.688,0,0,0,0-1.6l-.855-2.835a1.553,1.553,0,0,1,.529-1.685l2.321-1.767a2.538,2.538,0,0,0,.937-1.315l.977-2.794a1.493,1.493,0,0,1,1.425-1.027l2.932-.041a2.544,2.544,0,0,0,1.507-.493l2.4-1.685a1.66,1.66,0,0,1,.9-.288,1.457,1.457,0,0,1,.9.288l2.4,1.685a2.544,2.544,0,0,0,1.507.493l2.932.041a1.549,1.549,0,0,1,1.425,1.027l.977,2.794a2.538,2.538,0,0,0,.937,1.315l2.321,1.767a1.509,1.509,0,0,1,.529,1.685L40.928,31.2a2.688,2.688,0,0,0,0,1.6l.855,2.835a1.553,1.553,0,0,1-.529,1.685Z" transform="translate(-12.57 -16)" fill="#f6f6f6" stroke="#f6f6f6" stroke-width="0.2"/>
            <path id="Path_1948" data-name="Path 1948" d="M42.695,26.869h.144a11.126,11.126,0,0,1,1.339-.239.724.724,0,1,0-.191-1.435c-.478.048-1,.144-1.483.239a.73.73,0,0,0,.191,1.435Z" transform="translate(-30.043 -20.793)" fill="#f6f6f6" stroke="#f6f6f6" stroke-width="0.2"/>
            <path id="Path_1949" data-name="Path 1949" d="M35.308,78.248a9.014,9.014,0,0,1-1.148-.67.752.752,0,0,0-1,.191.708.708,0,0,0,.191,1c.431.287.861.526,1.292.765a.887.887,0,0,0,.335.1.69.69,0,0,0,.622-.383A.756.756,0,0,0,35.308,78.248Z" transform="translate(-24.723 -52.464)" fill="#f6f6f6" stroke="#f6f6f6" stroke-width="0.2"/>
            <path id="Path_1950" data-name="Path 1950" d="M33.577,30.316a.9.9,0,0,0,.383-.1c.383-.239.765-.478,1.148-.67a.706.706,0,1,0-.67-1.244c-.431.239-.861.478-1.292.765a.708.708,0,0,0-.191,1A.909.909,0,0,0,33.577,30.316Z" transform="translate(-24.604 -23.248)" fill="#f6f6f6" stroke="#f6f6f6" stroke-width="0.2"/>
            <path id="Path_1951" data-name="Path 1951" d="M44.278,81.516a13.114,13.114,0,0,1-1.339-.239.714.714,0,0,0-.335,1.387c.478.1,1,.191,1.483.239h.1a.764.764,0,0,0,.718-.622A.689.689,0,0,0,44.278,81.516Z" transform="translate(-30.102 -55.301)" fill="#f6f6f6" stroke="#f6f6f6" stroke-width="0.2"/>
            <path id="Path_1952" data-name="Path 1952" d="M22.661,62.352a.726.726,0,1,0-1.387.431A11.9,11.9,0,0,0,21.8,64.17a.677.677,0,0,0,.67.431.607.607,0,0,0,.287-.048.721.721,0,0,0,.383-.957A9.585,9.585,0,0,1,22.661,62.352Z" transform="translate(-17.097 -43.255)" fill="#f6f6f6" stroke="#f6f6f6" stroke-width="0.2"/>
            <path id="Path_1953" data-name="Path 1953" d="M21.7,45.167c.048,0,.144.048.191.048a.7.7,0,0,0,.67-.526c.144-.431.287-.861.478-1.292a.729.729,0,0,0-1.339-.574c-.191.478-.383.957-.526,1.435A.789.789,0,0,0,21.7,45.167Z" transform="translate(-17.049 -31.689)" fill="#f6f6f6" stroke="#f6f6f6" stroke-width="0.2"/>
            <path id="Path_1954" data-name="Path 1954" d="M52.516,26.629a13.115,13.115,0,0,1,1.339.239H54a.762.762,0,0,0,.718-.574.713.713,0,0,0-.526-.861c-.478-.1-1-.191-1.483-.239a.724.724,0,0,0-.191,1.435Z" transform="translate(-35.949 -20.793)" fill="#f6f6f6" stroke="#f6f6f6" stroke-width="0.2"/>
            <path id="Path_1955" data-name="Path 1955" d="M27.085,70.981a.718.718,0,1,0-1.148.861c.287.383.622.765.957,1.148a.768.768,0,0,0,.526.239.614.614,0,0,0,.478-.191.74.74,0,0,0,.048-1A8.329,8.329,0,0,1,27.085,70.981Z" transform="translate(-20.415 -48.485)" fill="#f6f6f6" stroke="#f6f6f6" stroke-width="0.2"/>
            <path id="Path_1956" data-name="Path 1956" d="M25.981,36.49a.772.772,0,0,0,.431.144.682.682,0,0,0,.574-.287c.287-.335.574-.718.861-1.052a.711.711,0,1,0-1.052-.957c-.335.383-.67.765-.957,1.148A.7.7,0,0,0,25.981,36.49Z" transform="translate(-20.356 -26.75)" fill="#f6f6f6" stroke="#f6f6f6" stroke-width="0.2"/>
            <path id="Path_1957" data-name="Path 1957" d="M20.765,54.922a.707.707,0,0,0,.67-.765V52.865A.719.719,0,1,0,20,52.77v1.483l.718-.048L20,54.253a.739.739,0,0,0,.765.67Z" transform="translate(-16.446 -37.465)" fill="#f6f6f6" stroke="#f6f6f6" stroke-width="0.2"/>
            <path id="Path_1958" data-name="Path 1958" d="M75.167,44.541a.767.767,0,0,0,.67.526.288.288,0,0,0,.191-.048.736.736,0,0,0,.478-.909,11.9,11.9,0,0,0-.526-1.387.729.729,0,0,0-1.339.574A5.715,5.715,0,0,1,75.167,44.541Z" transform="translate(-49.33 -31.627)" fill="#f6f6f6" stroke="#f6f6f6" stroke-width="0.2"/>
            <path id="Path_1959" data-name="Path 1959" d="M53.956,81.277a11.122,11.122,0,0,1-1.339.239.715.715,0,0,0-.622.813.686.686,0,0,0,.718.622h.1c.478-.048,1-.144,1.483-.239a.737.737,0,0,0-.335-1.435Z" transform="translate(-36.008 -55.301)" fill="#f6f6f6" stroke="#f6f6f6" stroke-width="0.2"/>
            <path id="Path_1960" data-name="Path 1960" d="M78.43,52.565a.681.681,0,0,0-.765-.67.707.707,0,0,0-.67.765v1.387a.773.773,0,0,0,.67.765h.048a.7.7,0,0,0,.718-.67V52.565Z" transform="translate(-51.494 -37.348)" fill="#f6f6f6" stroke="#f6f6f6" stroke-width="0.2"/>
            <path id="Path_1961" data-name="Path 1961" d="M71.455,70.737a.7.7,0,0,0-1,.144c-.287.383-.574.718-.861,1.052a.694.694,0,0,0,.048,1,.685.685,0,0,0,.478.191.768.768,0,0,0,.526-.239c.335-.383.67-.765.957-1.148A.749.749,0,0,0,71.455,70.737Z" transform="translate(-46.299 -48.425)" fill="#f6f6f6" stroke="#f6f6f6" stroke-width="0.2"/>
            <path id="Path_1962" data-name="Path 1962" d="M76.128,61.873a.758.758,0,0,0-.909.478c-.144.431-.287.861-.478,1.292a.737.737,0,0,0,.383.957.607.607,0,0,0,.287.048.722.722,0,0,0,.67-.431c.191-.478.383-.957.526-1.435A.736.736,0,0,0,76.128,61.873Z" transform="translate(-49.389 -43.259)" fill="#f6f6f6" stroke="#f6f6f6" stroke-width="0.2"/>
            <path id="Path_1963" data-name="Path 1963" d="M61.774,29.347c.383.191.813.431,1.2.67a.575.575,0,0,0,.383.1.7.7,0,0,0,.622-.335.752.752,0,0,0-.191-1c-.431-.287-.861-.526-1.292-.765a.691.691,0,0,0-.957.335A.641.641,0,0,0,61.774,29.347Z" transform="translate(-41.58 -23.074)" fill="#f6f6f6" stroke="#f6f6f6" stroke-width="0.2"/>
            <path id="Path_1964" data-name="Path 1964" d="M70.372,36.268a.682.682,0,0,0,.574.287.772.772,0,0,0,.431-.144.7.7,0,0,0,.144-1c-.287-.383-.622-.765-.957-1.148a.711.711,0,1,0-1.052.957C69.8,35.55,70.085,35.885,70.372,36.268Z" transform="translate(-46.262 -26.713)" fill="#f6f6f6" stroke="#f6f6f6" stroke-width="0.2"/>
            <path id="Path_1965" data-name="Path 1965" d="M63.023,77.489c-.383.239-.765.478-1.148.67a.78.78,0,0,0-.335.957.747.747,0,0,0,.622.383.887.887,0,0,0,.335-.1c.431-.239.861-.478,1.292-.765a.708.708,0,0,0,.191-1A.78.78,0,0,0,63.023,77.489Z" transform="translate(-41.631 -52.41)" fill="#f6f6f6" stroke="#f6f6f6" stroke-width="0.2"/>
          </g>
        </g>
        <g id="Group_1779" data-name="Group 1779" transform="translate(142.338 433.399)">
          <g id="Rectangle_1253" data-name="Rectangle 1253" transform="translate(10.993 13.762)" fill="#fff" stroke="#707070" stroke-width="1">
            <rect width="25.45" height="18.852" stroke="none"/>
            <rect x="0.5" y="0.5" width="24.45" height="17.852" fill="none"/>
          </g>
          <g id="Group_1750" data-name="Group 1750" transform="translate(0)">
            <path id="noun_Stamp_831862" d="M95.264,34.437a4.9,4.9,0,0,0,0,5.854,4.9,4.9,0,0,1-2.5,7.616,4.9,4.9,0,0,0-3.44,4.713,4.892,4.892,0,0,1-6.466,4.713,4.9,4.9,0,0,0-5.561,1.81,4.9,4.9,0,0,1-7.993,0,4.9,4.9,0,0,0-5.561-1.81,4.892,4.892,0,0,1-6.466-4.713,4.9,4.9,0,0,0-3.488-4.713,4.9,4.9,0,0,1-2.47-7.6,4.9,4.9,0,0,0,0-5.854,4.9,4.9,0,0,1,2.47-7.626,4.9,4.9,0,0,0,3.44-4.713A4.892,4.892,0,0,1,63.7,17.4a4.9,4.9,0,0,0,5.561-1.81,4.9,4.9,0,0,1,7.993,0,4.9,4.9,0,0,0,5.561,1.81,4.892,4.892,0,0,1,6.466,4.713,4.9,4.9,0,0,0,3.44,4.713,4.9,4.9,0,0,1,2.545,7.607Zm-14.77-2.649a2.884,2.884,0,0,0-4.081,0L71.4,36.8l-1.2-1.2a2.886,2.886,0,1,0-4.081,4.081l1.2,1.2,2.045,2.045a2.894,2.894,0,0,0,4.081,0l2.027-2.045,5.015-5.015a2.884,2.884,0,0,0,.009-4.081Z" transform="translate(-50.338 -13.53)" fill="#4ba9d9"/>
          </g>
        </g>
        <rect id="Rectangle_1400" data-name="Rectangle 1400" width="45" height="2" rx="1" transform="translate(206.338 479.78)" fill="#fff"/>
        <rect id="Rectangle_1401" data-name="Rectangle 1401" width="45" height="2" rx="1" transform="translate(206.338 487.78)" fill="#fff"/>
        <rect id="Rectangle_1402" data-name="Rectangle 1402" width="45" height="2" rx="1" transform="translate(206.338 495.78)" fill="#fff"/>
      </g>
      <g id="Group_2792" data-name="Group 2792" transform="translate(-633 -3112)">
        <rect id="Rectangle_1270" data-name="Rectangle 1270" width="73" height="71" rx="35.5" transform="translate(1297 3633)" fill="#9a9a9a"/>
        <g id="upload" transform="translate(1313 3643)">
          <g id="Group_1032" data-name="Group 1032" transform="translate(9.677)">
            <g id="Group_1031" data-name="Group 1031" transform="translate(0)">
              <path id="Path_1134" data-name="Path 1134" d="M149.775,11.533,140.1.473a1.379,1.379,0,0,0-2.079,0l-9.677,11.06a1.382,1.382,0,0,0,1.04,2.292h5.53V31.8a1.383,1.383,0,0,0,1.382,1.382h5.53a1.383,1.383,0,0,0,1.382-1.382V13.825h5.53a1.382,1.382,0,0,0,1.04-2.292Z" transform="translate(-127.998)" fill="#fff"/>
            </g>
          </g>
          <g id="Group_1034" data-name="Group 1034" transform="translate(0 30.414)">
            <g id="Group_1033" data-name="Group 1033">
              <path id="Path_1135" data-name="Path 1135" d="M51.944,352v8.295H21.53V352H16v11.06a2.764,2.764,0,0,0,2.765,2.765H54.709a2.762,2.762,0,0,0,2.765-2.765V352Z" transform="translate(-16 -352)" fill="#fff"/>
            </g>
          </g>
        </g>
      </g>
    </g>
    <g id="Group_2788" data-name="Group 2788" transform="translate(343 -23)">
      <g id="Group_2777" data-name="Group 2777" transform="translate(679 46)">
        <g id="Group_1800-2" data-name="Group 1800" transform="translate(-517 -198)">
          <text id="Electronically_sign_the_document_and_accept_the_terms_of_service" data-name="Electronically sign the document and accept the terms of service" transform="translate(634 775)" fill="#707070" font-size="25" font-family="Montserrat-Regular, Montserrat"><tspan x="25.938" y="24">Electronically sign the </tspan><tspan x="0.238" y="54">document and accept the </tspan><tspan x="65.225" y="84">terms of service</tspan></text>
        </g>
      </g>
      <g id="Group_2778" data-name="Group 2778" transform="translate(387 -3141)">
        <circle id="Ellipse_532" data-name="Ellipse 532" cx="23" cy="23" r="23" transform="translate(438 3546)" fill="#4ba9d9"/>
        <text id="_3" data-name="3" transform="translate(461.5 3581)" fill="#fff" font-size="30" font-family="Helvetica-Bold, Helvetica" font-weight="700"><tspan x="-8.342" y="0">3</tspan></text>
      </g>
      <g id="Group_2785" data-name="Group 2785" transform="translate(17 -5)">
        <g id="Rectangle_1398" data-name="Rectangle 1398" transform="translate(877 443)" fill="#fff" stroke="#888" stroke-width="8">
          <rect width="132" height="166" rx="19" stroke="none"/>
          <rect x="4" y="4" width="124" height="158" rx="15" fill="none"/>
        </g>
        <g id="Group_2784" data-name="Group 2784" transform="translate(901.356 464.43)">
          <path id="Path_1980" data-name="Path 1980" d="M32.9,50.506a4.624,4.624,0,0,0,6.921,0L50.552,38.914a4.651,4.651,0,1,0-6.748-6.4l-7.44,7.959-2.249-2.422a4.647,4.647,0,0,0-6.575-.173,4.5,4.5,0,0,0-.173,6.575Z" transform="translate(-26.023 -31.062)" fill="#888"/>
          <path id="Path_1981" data-name="Path 1981" d="M43.631,51.212,36.364,59l-2.249-2.422a4.651,4.651,0,0,0-6.748,6.4L32.9,69.206a4.624,4.624,0,0,0,6.921,0L50.552,57.614a4.647,4.647,0,0,0-.173-6.575A4.858,4.858,0,0,0,43.631,51.212Z" transform="translate(-26.023 -17.407)" fill="#888"/>
          <path id="Path_1982" data-name="Path 1982" d="M43.631,69.951l-7.267,7.786-2.249-2.422a4.651,4.651,0,0,0-6.748,6.4l5.71,6.056a4.624,4.624,0,0,0,6.921,0L50.725,76.18a4.647,4.647,0,0,0-.173-6.575A5.072,5.072,0,0,0,43.631,69.951Z" transform="translate(-26.023 -3.791)" fill="#888"/>
          <path id="Path_1983" data-name="Path 1983" d="M90.332,53.1H49.672a4.672,4.672,0,1,0,0,9.343H90.5a4.652,4.652,0,0,0,4.672-4.672A4.919,4.919,0,0,0,90.332,53.1Z" transform="translate(-12.166 -14.97)" fill="#888"/>
          <path id="Path_1984" data-name="Path 1984" d="M49.672,34.4a4.672,4.672,0,0,0,0,9.343H90.5a4.672,4.672,0,0,0,0-9.343Z" transform="translate(-12.166 -28.625)" fill="#888"/>
          <path id="Path_1985" data-name="Path 1985" d="M90.332,71.8H49.672a4.672,4.672,0,1,0,0,9.343H90.5a4.652,4.652,0,0,0,4.672-4.672A4.8,4.8,0,0,0,90.332,71.8Z" transform="translate(-12.166 -1.314)" fill="#888"/>
        </g>
        <g id="noun_signature_1745297" transform="translate(911.435 559.344)">
          <g id="Group_1912" data-name="Group 1912" transform="translate(0 0)">
            <g id="Group_1911" data-name="Group 1911">
              <g id="Group_1910" data-name="Group 1910">
                <path id="Path_1575" data-name="Path 1575" d="M36.593,42.964a61.359,61.359,0,0,0,17.3-11.254A2.152,2.152,0,0,0,52.382,28.1c-4.2-.168-7.391,2.436-10.5,4.871a93.814,93.814,0,0,0-7.727,6.551,154.845,154.845,0,0,1-20.241,6.8c-2.6.756-1.512,4.787,1.092,4.031,4.2-1.176,8.4-2.436,12.514-3.863A91.755,91.755,0,0,0,16.939,61.778c-1.344,2.352,2.268,4.451,3.611,2.1A91.178,91.178,0,0,1,33.653,45.9C34.577,44.9,35.585,43.888,36.593,42.964Z" transform="translate(-12.426 -28.091)" fill="#4ba9d9"/>
                <path id="Path_1576" data-name="Path 1576" d="M77.43,46.445c-2.184.252-5.039,1.008-7.391.924a3.7,3.7,0,0,0-.168-.84,2.085,2.085,0,0,0-2.6-1.428c-.672.252-5.543,2.268-5.963,1.512a2.072,2.072,0,0,0-2.856-.756,16.363,16.363,0,0,1-7.811,3.024,14.594,14.594,0,0,1,.84-1.6c.924-1.428-.672-3.779-2.352-3.108A83.219,83.219,0,0,0,37.7,49.553c-2.352,1.344-.252,4.955,2.1,3.611,2.016-1.092,4.031-2.184,6.131-3.108,0,.168-.084.252-.084.42a2.185,2.185,0,0,0,2.016,2.688A20.338,20.338,0,0,0,59.2,50.393c1.932,1.26,4.619.42,7.055-.42A2.2,2.2,0,0,0,67.688,51.4c3.108.5,6.635-.336,9.743-.672C80.034,50.393,80.118,46.193,77.43,46.445Z" transform="translate(-16.308 -30.648)" fill="#4ba9d9"/>
              </g>
            </g>
          </g>
        </g>
      </g>
    </g>
    <g id="Group_2790" data-name="Group 2790" transform="translate(-361 -23)">
      <g id="Group_2779" data-name="Group 2779" transform="translate(1031 46)">
        <g id="Group_1800-3" data-name="Group 1800" transform="translate(-517 -198)">
          <text id="Turn_your_device_to_the_custodian_to_collect_their_electronic_signature" data-name="Turn your device to the custodian to collect their electronic signature" transform="translate(634 775)" fill="#707070" font-size="25" font-family="Montserrat-Regular, Montserrat"><tspan x="19.962" y="24">Turn your device to the </tspan><tspan x="8.875" y="54">custodian to collect their </tspan><tspan x="38.75" y="84">electronic signature</tspan></text>
        </g>
      </g>
      <g id="Group_2780" data-name="Group 2780" transform="translate(739 -3141)">
        <path id="Path_1990" data-name="Path 1990" d="M23,0A23,23,0,1,1,0,23,23,23,0,0,1,23,0Z" transform="translate(438 3546)" fill="#4ba9d9"/>
        <text id="_2" data-name="2" transform="translate(461.5 3581)" fill="#fff" font-size="30" font-family="Helvetica-Bold, Helvetica" font-weight="700"><tspan x="-8.342" y="0">2</tspan></text>
      </g>
      <g id="noun_hands_holding_smartphone_1264229" data-name="noun_hands holding smartphone_1264229" transform="translate(1244.931 499.797)">
        <path id="Path_1986" data-name="Path 1986" d="M23.027,20.571a1.956,1.956,0,0,0,1.953-1.953V11.172a1.953,1.953,0,1,0-3.907,0v7.445A1.948,1.948,0,0,0,23.027,20.571Z" transform="translate(96.226 34.551)" fill="#5ab6e5" stroke="#5ab6e5" stroke-width="3"/>
        <circle id="Ellipse_681" data-name="Ellipse 681" cx="2.143" cy="2.143" r="2.143" transform="translate(117.11 62.662)" fill="#5ab6e5" stroke="#5ab6e5" stroke-width="3"/>
        <circle id="Ellipse_682" data-name="Ellipse 682" cx="3.689" cy="3.689" r="3.689" transform="translate(8.697 45.896)" fill="#5ab6e5" stroke="#5ab6e5" stroke-width="3"/>
        <path id="Path_1987" data-name="Path 1987" d="M9.841,88.625h22.7c1.92,8.612,5.068,11.96,7.624,14.684.424.452.832.887,1.222,1.334l.017,10.035a2.227,2.227,0,0,0,2.232,2.227h0a2.235,2.235,0,0,0,2.227-2.238l-.017-10.833a2.264,2.264,0,0,0-.48-1.384c-.608-.765-1.267-1.468-1.953-2.2-2.294-2.445-4.655-4.989-6.29-11.67l50.386-.2a2.11,2.11,0,0,0,.257-.056,2.37,2.37,0,0,0,.48-.1,2.01,2.01,0,0,0,.391-.207,1.694,1.694,0,0,0,.262-.14c4.989-4.035,6.96-7.166,10.582-13.875,1.992-3.695,4.1-4.342,6.256-4.716a6.382,6.382,0,0,1,2.322.033l.218.033a3.437,3.437,0,0,1,1.9,3.46,3.515,3.515,0,0,1-.022.58c-.2,1.825-1.741,3.784-3.3,5.637a2.231,2.231,0,0,0-.525,1.44v5.888c-.056,3.89-8,14.528-17.826,15.488a2.234,2.234,0,0,0-2.015,2.221l-.006,10.582a2.234,2.234,0,0,0,2.227,2.232h0a2.235,2.235,0,0,0,2.232-2.232l.006-8.673c9.527-1.976,17.781-10.984,19.511-17.38h13.021a9.784,9.784,0,0,0,9.772-9.772V20.787a9.784,9.784,0,0,0-9.772-9.772H93.72a4.655,4.655,0,0,0-.988-1.06l-6.558-5.2a5.253,5.253,0,0,0-7.2.826h0L77.68,7.214l-5.631-4.47a5.3,5.3,0,0,0-7.255.843l-2.21,2.785L58.442,3.084a5.249,5.249,0,0,0-7.2.832L48.954,6.778c-.089.112-.173.229-.251.346L45.036,4.211a5.362,5.362,0,0,0-7.356.843L35.325,8.029a5.161,5.161,0,0,0-1.127,2.98H9.841A9.784,9.784,0,0,0,.069,20.781V78.847A9.778,9.778,0,0,0,9.841,88.625ZM110.714,15.474h12.764a5.319,5.319,0,0,1,5.313,5.313V78.853a5.319,5.319,0,0,1-5.313,5.313H110.787V81.3c1.825-2.2,3.5-4.6,3.812-7.417a6.073,6.073,0,0,0,.028-1.206,7.59,7.59,0,0,0-3.907-7.043V15.474ZM82.468,8.347c.123-.156.313-.24.926-.106l6.558,5.2c.218.173-.039.926-.067,1.01-.6,1.736-2.193,3.036-3.031,2.9L81.374,13a9.535,9.535,0,0,0-.045-3.215Zm-16.5.921L68.275,6.36c.134-.179.335-.262.993-.117l6.658,5.285c.229.184-.011.915-.061,1.06-.619,1.775-2.383,3.025-3.125,2.952l-6.658-5.28A.8.8,0,0,1,65.965,9.268Zm-13.517.285h0l2.277-2.874a.476.476,0,0,1,.43-.179,2.216,2.216,0,0,1,.5.067l5.235,4.152a8.792,8.792,0,0,0,.859,2.908c-.748,1.261-1.831,2.193-2.634,2.048l-6.8-5.637A.663.663,0,0,1,52.448,9.552ZM38.818,10.808h0l2.361-2.975a.559.559,0,0,1,.5-.207,2.507,2.507,0,0,1,.586.084L48.05,12.3a9.415,9.415,0,0,0,.921,2.071c-.675,1.764-2.405,3.036-3.226,2.913l-6.8-5.391a.781.781,0,0,1-.128-1.083ZM24.8,15.474H36.279l6.692,5.308c3.042,2.405,8.042-.095,9.957-4.309l3.416,2.712c2.763,2.177,7.194.324,9.354-3.527l4.27,3.382c2.539,2,6.429.659,8.751-2.445l5.363,4.258c3.148,2.495,8.45-.424,10.018-4.928.05-.151.1-.3.14-.452h12V64.76a10.782,10.782,0,0,0-1.278.14c-3.081.536-6.6,1.792-9.415,6.993C92.118,78.261,90.4,80.8,86.676,83.92l-60.5.24H24.8ZM4.528,20.787a5.319,5.319,0,0,1,5.313-5.313h10.5V84.166H9.841a5.319,5.319,0,0,1-5.313-5.313Z" transform="translate(0 0)" fill="#5ab6e5" stroke="#5ab6e5" stroke-width="3"/>
      </g>
      <path id="noun_Hand_402441" d="M106.564,55.213l-.637-15.862c0-.875-1.115-1.641-2.39-1.641q-7.647,0-11.948,2.626V15.611c0-3.829-4.62-7-10.2-7A12.4,12.4,0,0,0,75.5,9.923C73.905,7.079,70.082,5,65.621,5c-5.576,0-10.2,3.172-10.2,7v.438a14.532,14.532,0,0,0-5.417-1.094c-5.576,0-10.2,3.172-10.2,7V26.77A14.532,14.532,0,0,0,34.4,25.676c-5.576,0-10.2,3.172-10.2,7V70.091c0,14.112,3.5,20.238,6.054,24.614,1.434,2.516,2.549,4.376,2.549,7,0,.875,1.115,1.641,2.39,1.641s2.39-.766,2.39-1.641c0-3.282-1.274-5.579-2.868-8.2-2.39-4.157-5.735-9.955-5.735-23.411V32.677c0-2.079,2.39-3.719,5.417-3.719s5.417,1.641,5.417,3.719V60.136c0,.875,1.115,1.641,2.39,1.641s2.39-.766,2.39-1.641V18.346c0-2.079,2.39-3.719,5.417-3.719s5.417,1.641,5.417,3.719V58.057c0,.875,1.115,1.641,2.39,1.641s2.39-.766,2.39-1.641V12c0-2.079,2.39-3.719,5.417-3.719S71.038,9.923,71.038,12V58.057c0,.875,1.115,1.641,2.39,1.641s2.39-.766,2.39-1.641V15.611c0-2.079,2.39-3.719,5.417-3.719s5.417,1.641,5.417,3.719V45.7h0a19.315,19.315,0,0,0-1.593,8.423V67.9c-5.417.766-10.037,4.048-13.064,9.517-.478.875.159,1.75,1.434,2.079a2.673,2.673,0,0,0,3.027-.985c1.912-3.5,5.417-7.548,10.993-7.548,1.274,0,2.39-.766,2.39-1.641V54.119c0-10.283,5.1-12.69,11.311-13.018l.637,14.112V70.2c0,13.784-7.647,19.144-13.86,23.52-3.346,2.407-6.532,4.595-7.806,7.767-.319.875.478,1.75,1.752,1.969h.637a2.674,2.674,0,0,0,2.39-1.2c.8-2.3,3.346-4.048,6.532-6.236C97.8,91.532,106.724,85.406,106.724,70.2Z" transform="translate(1375.936 507.342) rotate(-179)" fill="#2362c7" stroke="#2362c7" stroke-width="2"/>
    </g>
    <g id="Group_2774" data-name="Group 2774" transform="translate(-230 -463)">
      <text id="As_a_registered_notary_you_can_digitally_notarize_this_document_in_three_simple_steps" data-name="As a registered notary you can digitally notarize this document in three simple steps" transform="translate(654 778)" fill="#707070" font-size="25" font-family="Montserrat-Regular, Montserrat"><tspan x="10.588" y="24">As a registered notary you can digitally notarize this document in three simple steps</tspan></text>
    </g>
  </g>
</svg>
