<svg xmlns="http://www.w3.org/2000/svg" width="738.5" height="361.249" viewBox="0 0 738.5 361.249">
  <g id="Group_2790" data-name="Group 2790" transform="translate(-1128.5 -303.639)">
    <g id="Group_2779" data-name="Group 2779" transform="translate(1346 -70)">
      <g id="Group_1800" data-name="Group 1800" transform="translate(-536 -263)">
        <text id="Please_return_this_device_to_the_notary" data-name="Please return this device to the notary" transform="translate(634 775)" fill="#707070" font-size="30" font-family="Montserrat-Regular, Montserrat"><tspan x="8.34" y="29">Please return this device to </tspan><tspan x="133.335" y="66">the notary</tspan></text>
      </g>
    </g>
    <g id="noun_hands_holding_smartphone_1264229" data-name="noun_hands holding smartphone_1264229" transform="translate(1130 305.139)">
      <path id="Path_1986" data-name="Path 1986" d="M24.278,9.219a3.208,3.208,0,0,1,3.2,3.2V24.635a3.2,3.2,0,0,1-6.408,0V12.423A3.2,3.2,0,0,1,24.278,9.219Z" transform="translate(171.218 92.121)" fill="#2362c7" stroke="#2362c7" stroke-width="3"/>
      <ellipse id="Ellipse_681" data-name="Ellipse 681" cx="3.515" cy="3.515" rx="3.515" ry="3.515" transform="translate(191.98 81.942)" fill="#2362c7" stroke="#2362c7" stroke-width="3"/>
      <ellipse id="Ellipse_682" data-name="Ellipse 682" cx="6.051" cy="6.051" rx="6.051" ry="6.051" transform="translate(14.153 104.37)" fill="#2362c7" stroke="#2362c7" stroke-width="3"/>
      <path id="Path_1987" data-name="Path 1987" d="M16.1,48.063H53.33c3.149-14.125,8.312-19.618,12.505-24.086.7-.742,1.364-1.456,2-2.188l.027-16.46A3.653,3.653,0,0,1,71.53,1.677h0a3.667,3.667,0,0,1,3.653,3.671l-.027,17.769a3.713,3.713,0,0,1-.787,2.27c-1,1.254-2.078,2.408-3.2,3.607C67.4,33,63.528,37.178,60.846,48.136l82.647.32a3.46,3.46,0,0,1,.421.092,3.888,3.888,0,0,1,.787.165,3.3,3.3,0,0,1,.641.339,2.778,2.778,0,0,1,.43.229c8.184,6.619,11.416,11.754,17.357,22.758,3.268,6.06,6.719,7.122,10.262,7.736a10.469,10.469,0,0,0,3.808-.055l.357-.055a5.637,5.637,0,0,0,3.122-5.676,5.767,5.767,0,0,0-.037-.952c-.32-2.994-2.856-6.207-5.42-9.246a3.659,3.659,0,0,1-.861-2.362V51.771c-.092-6.381-13.118-23.829-29.24-25.4a3.665,3.665,0,0,1-3.3-3.643l-.009-17.357A3.665,3.665,0,0,1,145.462,1.7h0a3.667,3.667,0,0,1,3.662,3.662l.009,14.226c15.627,3.241,29.166,18.016,32,28.507h21.358a16.048,16.048,0,0,1,16.03,16.03v95.207a16.048,16.048,0,0,1-16.03,16.03H153.683a7.636,7.636,0,0,1-1.62,1.739l-10.757,8.532a8.616,8.616,0,0,1-11.809-1.355h0l-2.124-2.682-9.237,7.333a8.687,8.687,0,0,1-11.9-1.382l-3.625-4.568-6.793,5.392a8.609,8.609,0,0,1-11.809-1.364l-3.753-4.7c-.146-.183-.284-.375-.412-.568l-6.015,4.779a8.8,8.8,0,0,1-12.066-1.382L57.9,180.263a8.466,8.466,0,0,1-1.849-4.889H16.1a16.048,16.048,0,0,1-16.03-16.03V64.1A16.038,16.038,0,0,1,16.1,48.063Zm165.46,119.988h20.936a8.724,8.724,0,0,0,8.715-8.715V64.092a8.724,8.724,0,0,0-8.715-8.715H181.677v4.7c2.994,3.616,5.749,7.552,6.253,12.166a9.961,9.961,0,0,1,.046,1.977c.3,6.445-3.662,9.823-6.408,11.553v82.281Zm-46.331,11.69c.2.256.513.394,1.52.174l10.757-8.532c.357-.284-.064-1.52-.11-1.657-.989-2.847-3.6-4.98-4.971-4.751l-8.99,7.131a15.64,15.64,0,0,1-.073,5.273Zm-27.07-1.51,3.79,4.77c.22.293.549.43,1.63.192l10.921-8.669c.375-.3-.018-1.5-.1-1.739-1.016-2.911-3.909-4.962-5.127-4.843l-10.921,8.66A1.319,1.319,0,0,0,108.157,178.231Zm-22.172-.467h0l3.735,4.715a.78.78,0,0,0,.7.293,3.634,3.634,0,0,0,.824-.11l8.587-6.811a14.421,14.421,0,0,1,1.41-4.77c-1.227-2.069-3-3.6-4.321-3.36l-11.159,9.246A1.087,1.087,0,0,0,85.985,177.764ZM63.629,175.7h0l3.872,4.879a.916.916,0,0,0,.815.339,4.113,4.113,0,0,0,.961-.137l9.493-7.525a15.444,15.444,0,0,1,1.511-3.4c-1.108-2.893-3.946-4.98-5.291-4.779l-11.15,8.843a1.282,1.282,0,0,0-.211,1.776Zm-22.987-7.653H59.464l10.976-8.706c4.989-3.946,13.192.156,16.332,7.067l5.6-4.449c4.532-3.57,11.8-.531,15.343,5.786l7-5.548c4.165-3.286,10.546-1.08,14.354,4.01l8.8-6.985c5.163-4.092,13.86.7,16.432,8.083.082.247.165.494.229.742h19.691V87.208a17.684,17.684,0,0,1-2.1-.229c-5.053-.879-10.83-2.939-15.444-11.471-5.63-10.445-8.45-14.611-14.556-19.728l-99.245-.394H40.642ZM7.384,159.336a8.724,8.724,0,0,0,8.715,8.715h17.22V55.377H16.1a8.724,8.724,0,0,0-8.715,8.715Z" transform="translate(-0.069 -1.677)" fill="#2362c7" stroke="#2362c7" stroke-width="3"/>
    </g>
    <path id="noun_Hand_402441" d="M135.1,79.133l-1.045,26.019c0,1.436-1.829,2.692-3.92,2.692q-12.543,0-19.6-4.307V144.09c0,6.28-7.578,11.484-16.724,11.484a20.335,20.335,0,0,1-9.669-2.153c-2.613,4.665-8.885,8.075-16.2,8.075-9.146,0-16.724-5.2-16.724-11.484v-.718a23.837,23.837,0,0,1-8.885,1.794c-9.146,0-16.724-5.2-16.724-11.484V125.787a23.837,23.837,0,0,1-8.885,1.794C7.578,127.581,0,122.377,0,116.1V54.729c0-23.148,5.749-33.2,9.93-40.374,2.352-4.127,4.181-7.178,4.181-11.484,0-1.436,1.829-2.692,3.92-2.692s3.92,1.256,3.92,2.692c0,5.383-2.091,9.151-4.7,13.458-3.92,6.819-9.407,16.329-9.407,38.4V116.1c0,3.409,3.92,6.1,8.885,6.1s8.885-2.692,8.885-6.1V71.058c0-1.436,1.829-2.692,3.92-2.692s3.92,1.256,3.92,2.692V139.6c0,3.409,3.92,6.1,8.885,6.1s8.885-2.692,8.885-6.1V74.467c0-1.436,1.829-2.692,3.92-2.692s3.92,1.256,3.92,2.692v75.544c0,3.409,3.92,6.1,8.885,6.1s8.885-2.692,8.885-6.1V74.467c0-1.436,1.829-2.692,3.92-2.692s3.92,1.256,3.92,2.692V144.09c0,3.409,3.92,6.1,8.885,6.1s8.885-2.692,8.885-6.1V94.744h0c-1.829-3.768-2.613-8.434-2.613-13.817V58.318C90.938,57.062,83.36,51.678,78.4,42.707c-.784-1.436.261-2.871,2.352-3.409s4.181.179,4.965,1.615c3.136,5.742,8.885,12.381,18.031,12.381,2.091,0,3.92,1.256,3.92,2.692V80.927c0,16.867,8.362,20.815,18.554,21.353l1.045-23.148V54.549c0-22.609-12.543-31.4-22.735-38.579-5.488-3.948-10.714-7.536-12.8-12.74C91.2,1.794,92.506.359,94.6,0h1.045a4.386,4.386,0,0,1,3.92,1.974c1.307,3.768,5.488,6.639,10.714,10.228,10.453,7.357,25.086,17.406,25.086,42.348Z" transform="matrix(-1, 0.017, -0.017, -1, 1308.044, 661.508)" fill="#5ab6e5" stroke="#5ab6e5" stroke-width="2"/>
  </g>
</svg>
