<svg xmlns="http://www.w3.org/2000/svg" width="257" height="922" viewBox="0 0 257 922">
  <g id="Group_3293" data-name="Group 3293" transform="translate(-28 -75)">
    <g id="Group_2982" data-name="Group 2982" transform="translate(-760 364)">
      <g id="Group_2777" data-name="Group 2777" transform="translate(796 567.208)">
        <g id="Group_1800" data-name="Group 1800" transform="translate(0 0)">
          <text id="Electronically_sign_the_document_and_accept_the_terms_of_service" data-name="Electronically sign the document and accept the terms of service" transform="translate(0 -0.208)" fill="#707070" font-size="16" font-family="Montserrat-Regular, Montserrat"><tspan x="33.64" y="15">Electronically sign the </tspan><tspan x="17.192" y="34">document and accept the </tspan><tspan x="58.784" y="53">terms of service</tspan></text>
        </g>
      </g>
      <g id="Group_2778" data-name="Group 2778" transform="translate(817.76 405)">
        <circle id="Ellipse_532" data-name="Ellipse 532" cx="17" cy="17" r="17" transform="translate(0.24)" fill="#4ba9d9"/>
        <text id="_3" data-name="3" transform="translate(17.635 24.234)" fill="#fff" font-size="20" font-family="Montserrat-Bold, Montserrat" font-weight="700"><tspan x="-5.92" y="0">3</tspan></text>
      </g>
      <g id="Group_2785" data-name="Group 2785" transform="translate(869.192 429.727)">
        <g id="Rectangle_1398" data-name="Rectangle 1398" transform="translate(-0.191 0.273)" fill="#fff" stroke="#888" stroke-width="8">
          <rect width="98" height="123" rx="19" stroke="none"/>
          <rect x="4" y="4" width="90" height="115" rx="15" fill="none"/>
        </g>
        <g id="Group_2784" data-name="Group 2784" transform="translate(17.926 15.807)">
          <path id="Path_1980" data-name="Path 1980" d="M31.147,45.542a3.443,3.443,0,0,0,5.154,0l7.989-8.633a3.463,3.463,0,1,0-5.025-4.767l-5.54,5.927-1.675-1.8a3.46,3.46,0,0,0-4.9-.129,3.35,3.35,0,0,0-.129,4.9Z" transform="translate(-26.023 -31.062)" fill="#888"/>
          <path id="Path_1981" data-name="Path 1981" d="M39.136,50.842l-5.412,5.8-1.675-1.8A3.463,3.463,0,0,0,27.024,59.6l4.123,4.639a3.443,3.443,0,0,0,5.154,0l7.989-8.633a3.46,3.46,0,0,0-.129-4.9A3.618,3.618,0,0,0,39.136,50.842Z" transform="translate(-26.023 -25.667)" fill="#888"/>
          <path id="Path_1982" data-name="Path 1982" d="M39.136,69.557l-5.412,5.8-1.675-1.8a3.463,3.463,0,0,0-5.025,4.767l4.252,4.51a3.443,3.443,0,0,0,5.154,0L44.419,74.2a3.46,3.46,0,0,0-.129-4.9A3.777,3.777,0,0,0,39.136,69.557Z" transform="translate(-26.023 -20.288)" fill="#888"/>
          <path id="Path_1983" data-name="Path 1983" d="M78.758,53.1H48.479a3.479,3.479,0,0,0,0,6.958H78.887a3.464,3.464,0,0,0,3.479-3.479A3.663,3.663,0,0,0,78.758,53.1Z" transform="translate(-20.549 -24.704)" fill="#888"/>
          <path id="Path_1984" data-name="Path 1984" d="M48.479,34.4a3.479,3.479,0,0,0,0,6.958H78.887a3.479,3.479,0,1,0,0-6.958Z" transform="translate(-20.549 -30.099)" fill="#888"/>
          <path id="Path_1985" data-name="Path 1985" d="M78.758,71.8H48.479a3.479,3.479,0,1,0,0,6.958H78.887a3.464,3.464,0,0,0,3.479-3.479A3.576,3.576,0,0,0,78.758,71.8Z" transform="translate(-20.549 -19.31)" fill="#888"/>
        </g>
        <g id="noun_signature_1745297" transform="translate(25.432 86.489)">
          <g id="Group_1912" data-name="Group 1912" transform="translate(0 0)">
            <g id="Group_1911" data-name="Group 1911">
              <g id="Group_1910" data-name="Group 1910">
                <path id="Path_1575" data-name="Path 1575" d="M30.423,39.167a45.694,45.694,0,0,0,12.884-8.381A1.6,1.6,0,0,0,42.181,28.1c-3.127-.125-5.5,1.814-7.818,3.628A69.863,69.863,0,0,0,28.609,36.6a115.313,115.313,0,0,1-15.073,5.066c-1.939.563-1.126,3.565.813,3,3.127-.876,6.255-1.814,9.319-2.877a68.33,68.33,0,0,0-7.881,11.383,1.556,1.556,0,0,0,2.689,1.564,67.9,67.9,0,0,1,9.757-13.385C28.922,40.606,29.672,39.855,30.423,39.167Z" transform="translate(-12.426 -28.091)" fill="#4ba9d9"/>
                <path id="Path_1576" data-name="Path 1576" d="M67.025,45.836a38.927,38.927,0,0,1-5.5.688A2.753,2.753,0,0,0,61.4,45.9a1.553,1.553,0,0,0-1.939-1.063c-.5.188-4.128,1.689-4.441,1.126A1.543,1.543,0,0,0,52.89,45.4a12.186,12.186,0,0,1-5.817,2.252,10.868,10.868,0,0,1,.625-1.188c.688-1.063-.5-2.815-1.751-2.314a61.972,61.972,0,0,0-8.506,4A1.556,1.556,0,0,0,39,50.84c1.5-.813,3-1.626,4.566-2.314,0,.125-.063.188-.063.313a1.627,1.627,0,0,0,1.5,2,15.145,15.145,0,0,0,8.444-2.064c1.439.938,3.44.313,5.254-.313a1.64,1.64,0,0,0,1.063,1.063c2.314.375,4.941-.25,7.255-.5C68.964,48.776,69.027,45.648,67.025,45.836Z" transform="translate(-21.508 -34.072)" fill="#4ba9d9"/>
              </g>
            </g>
          </g>
        </g>
      </g>
    </g>
    <g id="Group_3292" data-name="Group 3292">
      <g id="Group_3291" data-name="Group 3291">
        <g id="Group_2977" data-name="Group 2977" transform="translate(91 -149)">
          <g id="Group_1762" data-name="Group 1762" transform="translate(-264 -77)">
            <rect id="Rectangle_1061" data-name="Rectangle 1061" width="236" height="64" rx="32" transform="translate(213 301)" fill="#eef5f6"/>
            <text id="Notarizing_a_Certified_Copy_with_MyPass" data-name="Notarizing a Certified
Copy with MyPass" transform="translate(331 328)" fill="#4ba9d9" font-size="18" font-family="Montserrat-Medium, Montserrat" font-weight="500"><tspan x="-97.992" y="0">Notarizing a Certified</tspan><tspan x="-82.746" y="22">Copy with MyPass</tspan></text>
          </g>
          <g id="Group_2774" data-name="Group 2774" transform="translate(-1032 -442)">
            <text id="As_a_registered_notary_you_can_digitally_notarize_this_document_in_two_simple_steps" data-name="As a registered notary you can digitally notarize this document in two simple steps" transform="translate(972 745)" fill="#707070" font-size="16" font-family="Montserrat-Regular, Montserrat"><tspan x="6.08" y="15">As a registered notary you can </tspan><tspan x="43.696" y="34">digitally notarize this </tspan><tspan x="5.488" y="53">document in two simple steps</tspan></text>
          </g>
        </g>
        <g id="Group_2981" data-name="Group 2981" transform="translate(-404 -182)">
          <g id="Group_1920" data-name="Group 1920" transform="translate(433 435.495)">
            <g id="Group_1800-2" data-name="Group 1800" transform="translate(0 128.448)">
              <text id="Fill_in_your_notary_information_and_upload_your_PEM_key_and_notary_seal" data-name="Fill in your notary 
information and upload your 
PEM key and notary seal" transform="translate(117 15.057)" fill="#707070" font-size="16" font-family="Montserrat-Regular, Montserrat"><tspan x="-71.296" y="0">Fill in your notary </tspan><tspan x="-117.304" y="19">information and upload your </tspan><tspan x="-97.92" y="38">PEM key and notary seal</tspan></text>
            </g>
            <g id="Group_2776" data-name="Group 2776" transform="translate(49.085 0)">
              <g id="Rectangle_1258" data-name="Rectangle 1258" transform="translate(-0.084 11.505)" fill="#fff" stroke="#888" stroke-width="7">
                <rect width="87" height="106" rx="9" stroke="none"/>
                <rect x="3.5" y="3.5" width="80" height="99" rx="5.5" fill="none"/>
              </g>
              <g id="Group_1843" data-name="Group 1843" transform="translate(0.745)">
                <g id="noun_credential_1655181" transform="translate(0)">
                  <path id="Path_1530" data-name="Path 1530" d="M40,131.172H53.339a1.955,1.955,0,0,0,0-3.91H40a1.955,1.955,0,1,0,0,3.91Z" transform="translate(-28.219 -32.336)" fill="#888"/>
                  <path id="Path_1531" data-name="Path 1531" d="M40,141.794H76.8a1.955,1.955,0,0,0,0-3.91H40a1.955,1.955,0,1,0,0,3.91Z" transform="translate(-28.219 -34.65)" fill="#888"/>
                  <circle id="Ellipse_523" data-name="Ellipse 523" cx="2.787" cy="2.787" r="2.787" transform="translate(55.171 101.571)" fill="#888"/>
                  <circle id="Ellipse_524" data-name="Ellipse 524" cx="2.787" cy="2.787" r="2.787" transform="translate(62.992 101.571)" fill="#888"/>
                  <circle id="Ellipse_525" data-name="Ellipse 525" cx="2.787" cy="2.787" r="2.787" transform="translate(70.813 101.571)" fill="#888"/>
                  <path id="Path_1532" data-name="Path 1532" d="M92.21,129.217a1.955,1.955,0,0,0-1.955-1.955h-26.2a1.955,1.955,0,1,0,0,3.91h26.2A1.955,1.955,0,0,0,92.21,129.217Z" transform="translate(-33.46 -32.336)" fill="#888"/>
                  <path id="Path_1533" data-name="Path 1533" d="M116.793,127.262h-11.9a1.955,1.955,0,1,0,0,3.91h11.9a1.955,1.955,0,0,0,0-3.91Z" transform="translate(-42.359 -32.336)" fill="#888"/>
                  <path id="Path_1535" data-name="Path 1535" d="M104.774,20.711H77.08l.518,5.475h27.177a1.45,1.45,0,0,1,1.447,1.455v91.855a1.45,1.45,0,0,1-1.447,1.455H32.409a1.452,1.452,0,0,1-1.455-1.455V27.64a1.452,1.452,0,0,1,1.455-1.455H57.037l.518-5.475H32.409A6.932,6.932,0,0,0,25.48,27.64v91.855a6.932,6.932,0,0,0,6.929,6.929h72.365a6.931,6.931,0,0,0,6.921-6.929V27.64A6.931,6.931,0,0,0,104.774,20.711Z" transform="translate(-25.48 -9.115)" fill="#888"/>
                  <path id="Path_1536" data-name="Path 1536" d="M102.649,38.631H40.005a1.956,1.956,0,0,0-1.955,1.955v61.494a1.956,1.956,0,0,0,1.955,1.955h62.644a1.951,1.951,0,0,0,1.955-1.955V40.586A1.951,1.951,0,0,0,102.649,38.631Zm-1.955,61.494H41.96V42.541h58.734Z" transform="translate(-28.219 -13.02)" fill="#888"/>
                  <path id="Path_1537" data-name="Path 1537" d="M70.309,27.965H83.257a1.4,1.4,0,0,0,1.386-1.534L82.82,7.153a1.4,1.4,0,0,0-1.386-1.269h-9.3a1.4,1.4,0,0,0-1.386,1.269L68.923,26.431A1.4,1.4,0,0,0,70.309,27.965Zm6.474-18.3A3.337,3.337,0,1,1,73.47,13,3.324,3.324,0,0,1,76.783,9.661Z" transform="translate(-34.946 -5.884)" fill="#888"/>
                </g>
                <g id="Group_2786" data-name="Group 2786" transform="translate(25.291 34.213)">
                  <path id="Union_69" data-name="Union 69" d="M7.694,46.472a7.473,7.473,0,0,1-5.543-2.155A7.988,7.988,0,0,1,0,38.479c0-.932.03-1.857.087-2.744A28.9,28.9,0,0,1,.441,32.8a24.508,24.508,0,0,1,.677-2.952,15.141,15.141,0,0,1,1.139-2.753,10.34,10.34,0,0,1,1.717-2.385,7.5,7.5,0,0,1,2.468-1.652,8.045,8.045,0,0,1,3.15-.608,3.087,3.087,0,0,1,1.706.771c.519.361,1.119.772,1.78,1.223a9.852,9.852,0,0,0,2.3,1.079,8.409,8.409,0,0,0,5.63,0,9.877,9.877,0,0,0,2.3-1.08c.669-.455,1.267-.866,1.779-1.221a3.092,3.092,0,0,1,1.707-.772,8.064,8.064,0,0,1,3.15.608,7.533,7.533,0,0,1,2.468,1.652,10.321,10.321,0,0,1,1.717,2.385,15.077,15.077,0,0,1,1.139,2.753,24.5,24.5,0,0,1,.678,2.952,29.494,29.494,0,0,1,.354,2.937c.058.885.087,1.809.088,2.745a7.987,7.987,0,0,1-2.152,5.838A7.474,7.474,0,0,1,28.7,46.472Zm2.8-27.365a11.2,11.2,0,0,1-3.078-7.915,11.2,11.2,0,0,1,3.078-7.914,10.053,10.053,0,0,1,14.855,0,11.2,11.2,0,0,1,3.078,7.914,11.2,11.2,0,0,1-3.077,7.914,10.053,10.053,0,0,1-14.856,0Z" transform="translate(0 0)" fill="#4ba9d9"/>
                </g>
              </g>
            </g>
          </g>
          <g id="Group_1930" data-name="Group 1930" transform="translate(462.751 405)">
            <path id="Path_1989" data-name="Path 1989" d="M17,0A17,17,0,1,1,0,17,17,17,0,0,1,17,0Z" fill="#4ba9d9"/>
            <text id="_1" data-name="1" transform="translate(16.681 24.018)" fill="#fff" font-size="20" font-family="Montserrat-Bold, Montserrat" font-weight="700"><tspan x="-3.92" y="0">1</tspan></text>
          </g>
          <g id="Group_2791" data-name="Group 2791" transform="translate(575.803 450.087)">
            <path id="noun_identification_9042" d="M74.423,21.555A2.555,2.555,0,0,0,71.867,19H4.556A2.555,2.555,0,0,0,2,21.555V62.464a2.556,2.556,0,0,0,2.556,2.554H71.868a2.556,2.556,0,0,0,2.555-2.555ZM28.4,50.685H8.035C7.36,48.014,9.084,46.54,11.877,45.9c2.735-.629,4.659-1.871,2.947-3.583-5-5.005-1.264-11.1,3.374-11.1s8.42,6.092,3.415,11.1c-1.712,1.713.173,2.954,2.906,3.583C27.315,46.54,29.08,48.014,28.4,50.685Zm39.983,0H32.931V47.667H68.388Zm0-7.544H32.931V40.123H68.388Zm0-7.544H32.931V32.579H68.388Z" transform="translate(12.486 -1.27)" fill="#327495"/>
            <rect id="Rectangle_1399" data-name="Rectangle 1399" width="66" height="23" transform="translate(18.197 28.914)" fill="#327495"/>
            <g id="noun_Seal_147135" transform="translate(19.63 29.165)">
              <path id="Path_1946" data-name="Path 1946" d="M43.707,50.171a.574.574,0,0,1-.32-.107l-2.455-1.779-2.455,1.779a.533.533,0,0,1-.64,0,.56.56,0,0,1-.178-.6l.925-2.882L36.129,44.8a.56.56,0,0,1-.178-.6.535.535,0,0,1,.5-.356h3.024l.925-2.882a.527.527,0,0,1,1,0l.925,2.882h3.024a.535.535,0,0,1,.5.356.56.56,0,0,1-.178.6l-2.455,1.779.925,2.882a.56.56,0,0,1-.178.6A.277.277,0,0,1,43.707,50.171Zm-2.775-3.1a.574.574,0,0,1,.32.107l1.459,1.067-.569-1.708a.56.56,0,0,1,.178-.6l1.459-1.067H42a.535.535,0,0,1-.5-.356l-.569-1.672-.569,1.708a.535.535,0,0,1-.5.356H38.085l1.459,1.067a.56.56,0,0,1,.178.6l-.569,1.708,1.459-1.067A.435.435,0,0,1,40.932,47.076Z" transform="translate(-29.429 -33.731)" fill="#f6f6f6" stroke="#f6f6f6" stroke-width="0.2"/>
              <g id="Group_2719" data-name="Group 2719" transform="translate(0 0)">
                <path id="Path_1947" data-name="Path 1947" d="M32.693,33.941l1.727-1.314a2.09,2.09,0,0,0,.727-2.262l-.636-2.109a1.267,1.267,0,0,1,0-.672l.636-2.109a2.09,2.09,0,0,0-.727-2.262L32.693,21.9a1.414,1.414,0,0,1-.394-.55l-.727-2.078a2.062,2.062,0,0,0-1.908-1.406l-2.151-.031a.945.945,0,0,1-.636-.214L25.09,16.367a2.086,2.086,0,0,0-2.363,0L20.94,17.62a1.135,1.135,0,0,1-.636.214l-2.181.031a2.125,2.125,0,0,0-1.908,1.406l-.727,2.078a1.162,1.162,0,0,1-.394.55l-1.727,1.314a2.076,2.076,0,0,0-.7,2.262l.636,2.109a1.267,1.267,0,0,1,0,.672l-.636,2.109a2.09,2.09,0,0,0,.727,2.262l1.727,1.314a1.414,1.414,0,0,1,.394.55l.727,2.078a2.062,2.062,0,0,0,1.908,1.406l2.181.031a.945.945,0,0,1,.636.214l1.787,1.253a2.007,2.007,0,0,0,1.181.367,2.075,2.075,0,0,0,1.181-.367l1.787-1.253a1.135,1.135,0,0,1,.636-.214l2.181-.031a2.125,2.125,0,0,0,1.908-1.406l.727-2.078A.77.77,0,0,1,32.693,33.941Zm-.545-.734a1.888,1.888,0,0,0-.7.978l-.727,2.078a1.111,1.111,0,0,1-1.06.764l-2.181.061a1.892,1.892,0,0,0-1.121.367l-1.787,1.253a1.131,1.131,0,0,1-1.3,0l-1.787-1.253a1.892,1.892,0,0,0-1.121-.367l-2.211-.061a1.152,1.152,0,0,1-1.06-.764l-.727-2.078a1.888,1.888,0,0,0-.7-.978l-1.727-1.314a1.122,1.122,0,0,1-.394-1.253l.636-2.109a2,2,0,0,0,0-1.192l-.636-2.109a1.155,1.155,0,0,1,.394-1.253l1.727-1.314a1.888,1.888,0,0,0,.7-.978l.727-2.078a1.111,1.111,0,0,1,1.06-.764l2.181-.031a1.892,1.892,0,0,0,1.121-.367l1.787-1.253a1.235,1.235,0,0,1,.666-.214,1.084,1.084,0,0,1,.666.214l1.787,1.253a1.892,1.892,0,0,0,1.121.367l2.181.031a1.152,1.152,0,0,1,1.06.764l.727,2.078a1.888,1.888,0,0,0,.7.978l1.727,1.314a1.122,1.122,0,0,1,.394,1.253l-.606,2.078a2,2,0,0,0,0,1.192l.636,2.109a1.155,1.155,0,0,1-.394,1.253Z" transform="translate(-12.57 -16)" fill="#f6f6f6" stroke="#f6f6f6" stroke-width="0.2"/>
                <path id="Path_1948" data-name="Path 1948" d="M42.505,26.438h.107a8.275,8.275,0,0,1,1-.178.538.538,0,1,0-.142-1.067c-.356.036-.747.107-1.1.178a.543.543,0,0,0,.142,1.067Z" transform="translate(-33.095 -21.92)" fill="#f6f6f6" stroke="#f6f6f6" stroke-width="0.2"/>
                <path id="Path_1949" data-name="Path 1949" d="M34.722,78.047a6.706,6.706,0,0,1-.854-.5.559.559,0,0,0-.747.142.527.527,0,0,0,.142.747c.32.213.64.391.961.569a.66.66,0,0,0,.249.071.513.513,0,0,0,.463-.285A.562.562,0,0,0,34.722,78.047Z" transform="translate(-26.849 -58.87)" fill="#f6f6f6" stroke="#f6f6f6" stroke-width="0.2"/>
                <path id="Path_1950" data-name="Path 1950" d="M33.384,29.779a.67.67,0,0,0,.285-.071c.285-.178.569-.356.854-.5a.525.525,0,1,0-.5-.925c-.32.178-.64.356-.961.569a.527.527,0,0,0-.142.747A.676.676,0,0,0,33.384,29.779Z" transform="translate(-26.71 -24.522)" fill="#f6f6f6" stroke="#f6f6f6" stroke-width="0.2"/>
                <path id="Path_1951" data-name="Path 1951" d="M43.708,81.45a9.757,9.757,0,0,1-1-.178.531.531,0,1,0-.249,1.032c.356.071.747.142,1.1.178h.071a.568.568,0,0,0,.534-.463A.513.513,0,0,0,43.708,81.45Z" transform="translate(-33.165 -61.951)" fill="#f6f6f6" stroke="#f6f6f6" stroke-width="0.2"/>
                <path id="Path_1952" data-name="Path 1952" d="M22.3,62.223a.54.54,0,0,0-1.032.32,8.854,8.854,0,0,0,.391,1.032.5.5,0,0,0,.5.32.451.451,0,0,0,.213-.036.536.536,0,0,0,.285-.712A7.129,7.129,0,0,1,22.3,62.223Z" transform="translate(-18.161 -48.019)" fill="#f6f6f6" stroke="#f6f6f6" stroke-width="0.2"/>
                <path id="Path_1953" data-name="Path 1953" d="M21.563,44.455c.036,0,.107.036.142.036a.524.524,0,0,0,.5-.391c.107-.32.213-.64.356-.961a.542.542,0,1,0-1-.427c-.142.356-.285.712-.391,1.067A.587.587,0,0,0,21.563,44.455Z" transform="translate(-18.101 -34.43)" fill="#f6f6f6" stroke="#f6f6f6" stroke-width="0.2"/>
                <path id="Path_1954" data-name="Path 1954" d="M52.356,26.26a9.754,9.754,0,0,1,1,.178h.107a.567.567,0,0,0,.534-.427.53.53,0,0,0-.391-.64c-.356-.071-.747-.142-1.1-.178a.538.538,0,0,0-.142,1.067Z" transform="translate(-40.033 -21.92)" fill="#f6f6f6" stroke="#f6f6f6" stroke-width="0.2"/>
                <path id="Path_1955" data-name="Path 1955" d="M26.753,70.905a.534.534,0,1,0-.854.64c.213.285.463.569.712.854a.571.571,0,0,0,.391.178.457.457,0,0,0,.356-.142.55.55,0,0,0,.036-.747A6.2,6.2,0,0,1,26.753,70.905Z" transform="translate(-21.792 -54.174)" fill="#f6f6f6" stroke="#f6f6f6" stroke-width="0.2"/>
                <path id="Path_1956" data-name="Path 1956" d="M25.905,35.877a.574.574,0,0,0,.32.107.507.507,0,0,0,.427-.213c.213-.249.427-.534.64-.783a.529.529,0,0,0-.783-.712c-.249.285-.5.569-.712.854A.52.52,0,0,0,25.905,35.877Z" transform="translate(-21.722 -28.632)" fill="#f6f6f6" stroke="#f6f6f6" stroke-width="0.2"/>
                <path id="Path_1957" data-name="Path 1957" d="M20.569,54.2a.526.526,0,0,0,.5-.569v-.961A.535.535,0,1,0,20,52.6v1.1l.534-.036L20,53.7a.55.55,0,0,0,.569.5Z" transform="translate(-17.356 -41.215)" fill="#f6f6f6" stroke="#f6f6f6" stroke-width="0.2"/>
                <path id="Path_1958" data-name="Path 1958" d="M75.018,43.963a.571.571,0,0,0,.5.391.214.214,0,0,0,.142-.036.547.547,0,0,0,.356-.676,8.853,8.853,0,0,0-.391-1.032.542.542,0,1,0-1,.427A4.251,4.251,0,0,1,75.018,43.963Z" transform="translate(-55.801 -34.358)" fill="#f6f6f6" stroke="#f6f6f6" stroke-width="0.2"/>
                <path id="Path_1959" data-name="Path 1959" d="M53.452,81.272a8.273,8.273,0,0,1-1,.178.532.532,0,0,0-.463.6.511.511,0,0,0,.534.463H52.6c.356-.036.747-.107,1.1-.178a.548.548,0,0,0-.249-1.067Z" transform="translate(-40.103 -61.951)" fill="#f6f6f6" stroke="#f6f6f6" stroke-width="0.2"/>
                <path id="Path_1960" data-name="Path 1960" d="M78.061,52.392a.507.507,0,0,0-.569-.5.526.526,0,0,0-.5.569v1.032a.575.575,0,0,0,.5.569h.036a.517.517,0,0,0,.534-.5V52.392Z" transform="translate(-58.027 -41.074)" fill="#f6f6f6" stroke="#f6f6f6" stroke-width="0.2"/>
                <path id="Path_1961" data-name="Path 1961" d="M70.928,70.7a.52.52,0,0,0-.747.107c-.213.285-.427.534-.64.783a.516.516,0,0,0,.036.747.51.51,0,0,0,.356.142.571.571,0,0,0,.391-.178c.249-.285.5-.569.712-.854A.557.557,0,0,0,70.928,70.7Z" transform="translate(-52.217 -54.104)" fill="#f6f6f6" stroke="#f6f6f6" stroke-width="0.2"/>
                <path id="Path_1962" data-name="Path 1962" d="M75.758,61.867a.564.564,0,0,0-.676.356c-.107.32-.213.64-.356.961a.548.548,0,0,0,.285.712.451.451,0,0,0,.213.036.537.537,0,0,0,.5-.32c.142-.356.285-.712.391-1.067A.547.547,0,0,0,75.758,61.867Z" transform="translate(-55.871 -48.023)" fill="#f6f6f6" stroke="#f6f6f6" stroke-width="0.2"/>
                <path id="Path_1963" data-name="Path 1963" d="M61.674,28.983c.285.142.6.32.89.5a.428.428,0,0,0,.285.071.519.519,0,0,0,.463-.249.559.559,0,0,0-.142-.747c-.32-.213-.64-.391-.961-.569a.514.514,0,0,0-.712.249A.477.477,0,0,0,61.674,28.983Z" transform="translate(-46.654 -24.317)" fill="#f6f6f6" stroke="#f6f6f6" stroke-width="0.2"/>
                <path id="Path_1964" data-name="Path 1964" d="M70.106,35.7a.507.507,0,0,0,.427.213.574.574,0,0,0,.32-.107.52.52,0,0,0,.107-.747c-.213-.285-.463-.569-.712-.854a.529.529,0,0,0-.783.712C69.679,35.162,69.893,35.411,70.106,35.7Z" transform="translate(-52.175 -28.59)" fill="#f6f6f6" stroke="#f6f6f6" stroke-width="0.2"/>
                <path id="Path_1965" data-name="Path 1965" d="M62.628,77.463c-.285.178-.569.356-.854.5a.58.58,0,0,0-.249.712.555.555,0,0,0,.463.285.66.66,0,0,0,.249-.071c.32-.178.64-.356.961-.569a.527.527,0,0,0,.142-.747A.58.58,0,0,0,62.628,77.463Z" transform="translate(-46.718 -58.81)" fill="#f6f6f6" stroke="#f6f6f6" stroke-width="0.2"/>
              </g>
            </g>
            <g id="Group_1779" data-name="Group 1779" transform="translate(0)">
              <g id="Rectangle_1253" data-name="Rectangle 1253" transform="translate(8.176 10.236)" fill="#fff" stroke="#707070" stroke-width="1">
                <rect width="18.929" height="14.021" stroke="none"/>
                <rect x="0.5" y="0.5" width="17.929" height="13.021" fill="none"/>
              </g>
              <g id="Group_1750" data-name="Group 1750" transform="translate(0)">
                <path id="noun_Stamp_831862" d="M83.753,29.08a3.646,3.646,0,0,0,0,4.354A3.646,3.646,0,0,1,81.895,39.1,3.646,3.646,0,0,0,79.336,42.6a3.639,3.639,0,0,1-4.809,3.505,3.646,3.646,0,0,0-4.136,1.346,3.646,3.646,0,0,1-5.945,0,3.646,3.646,0,0,0-4.136-1.346A3.639,3.639,0,0,1,55.5,42.6,3.646,3.646,0,0,0,52.905,39.1a3.646,3.646,0,0,1-1.837-5.651,3.646,3.646,0,0,0,0-4.354,3.646,3.646,0,0,1,1.837-5.672,3.646,3.646,0,0,0,2.559-3.505,3.639,3.639,0,0,1,4.809-3.505,3.646,3.646,0,0,0,4.136-1.346,3.646,3.646,0,0,1,5.945,0,3.646,3.646,0,0,0,4.136,1.346A3.639,3.639,0,0,1,79.3,19.917a3.646,3.646,0,0,0,2.559,3.505,3.646,3.646,0,0,1,1.893,5.658ZM72.767,27.11a2.145,2.145,0,0,0-3.036,0L66,30.84l-.89-.89a2.147,2.147,0,1,0-3.036,3.036l.89.89L64.487,35.4a2.152,2.152,0,0,0,3.036,0l1.507-1.521,3.73-3.73a2.145,2.145,0,0,0,.007-3.036Z" transform="translate(-50.338 -13.53)" fill="#4ba9d9"/>
              </g>
            </g>
            <rect id="Rectangle_1400" data-name="Rectangle 1400" width="34" height="2" rx="1" transform="translate(47.197 33.914)" fill="#fff"/>
            <rect id="Rectangle_1401" data-name="Rectangle 1401" width="34" height="1" rx="0.5" transform="translate(47.197 39.914)" fill="#fff"/>
            <rect id="Rectangle_1402" data-name="Rectangle 1402" width="34" height="2" rx="1" transform="translate(47.197 45.914)" fill="#fff"/>
          </g>
          <g id="Group_2792" data-name="Group 2792" transform="translate(604.798 490.315)">
            <rect id="Rectangle_1270" data-name="Rectangle 1270" width="54" height="54" rx="27" transform="translate(0.201 -0.315)" fill="#9a9a9a"/>
            <g id="upload" transform="translate(11.913 8.4)">
              <g id="Group_1032" data-name="Group 1032" transform="translate(7.198)">
                <g id="Group_1031" data-name="Group 1031" transform="translate(0)">
                  <path id="Path_1134" data-name="Path 1134" d="M144.195,8.578,137,.352a1.026,1.026,0,0,0-1.546,0l-7.2,8.226a1.028,1.028,0,0,0,.773,1.7h4.113V23.649a1.029,1.029,0,0,0,1.028,1.028h4.113a1.029,1.029,0,0,0,1.028-1.028V10.282h4.113a1.028,1.028,0,0,0,.773-1.7Z" transform="translate(-127.998 0)" fill="#fff"/>
                </g>
              </g>
              <g id="Group_1034" data-name="Group 1034" transform="translate(0 22.621)">
                <g id="Group_1033" data-name="Group 1033">
                  <path id="Path_1135" data-name="Path 1135" d="M42.734,352v6.169H20.113V352H16v8.226a2.056,2.056,0,0,0,2.056,2.056H44.791a2.055,2.055,0,0,0,2.056-2.056V352Z" transform="translate(-16 -352)" fill="#fff"/>
                </g>
              </g>
            </g>
          </g>
        </g>
      </g>
      <g id="Group_2991" data-name="Group 2991" transform="translate(-1116 75)">
        <g id="Group_2779" data-name="Group 2779" transform="translate(1154 584.954)">
          <g id="Group_1800-3" data-name="Group 1800" transform="translate(0 0)">
            <text id="Turn_your_device_to_the_custodian_to_collect_their_electronic_signature" data-name="Turn your device to the 
custodian to collect their 
electronic signature" transform="translate(120 18.046)" fill="#707070" font-size="19" font-family="Montserrat-Regular, Montserrat"><tspan x="-111.957" y="0">Turn your device to the </tspan><tspan x="-120.384" y="23">custodian to collect their </tspan><tspan x="-95.19" y="46">electronic signature</tspan></text>
          </g>
        </g>
        <g id="Group_2780" data-name="Group 2780" transform="translate(1171.935 404.348)">
          <path id="Path_1990" data-name="Path 1990" d="M17,0A17,17,0,1,1,0,17,17,17,0,0,1,17,0Z" transform="translate(0)" fill="#4ba9d9"/>
          <text id="_2" data-name="2" transform="translate(16.717 25.217)" fill="#fff" font-size="20" font-family="Helvetica-Bold, Helvetica" font-weight="700"><tspan x="-5.562" y="0">2</tspan></text>
        </g>
        <g id="noun_hands_holding_smartphone_1264229" data-name="noun_hands holding smartphone_1264229" transform="translate(1224.963 486.827)">
          <path id="Path_1986" data-name="Path 1986" d="M22.524,17.643a1.451,1.451,0,0,0,1.45-1.45V10.669a1.45,1.45,0,1,0-2.9,0v5.525A1.446,1.446,0,0,0,22.524,17.643Z" transform="translate(65.92 22.017)" fill="#5ab6e5" stroke="#5ab6e5" stroke-width="3"/>
          <ellipse id="Ellipse_681" data-name="Ellipse 681" cx="1.59" cy="1.59" rx="1.59" ry="1.59" transform="translate(86.853 45.256)" fill="#5ab6e5" stroke="#5ab6e5" stroke-width="3"/>
          <ellipse id="Ellipse_682" data-name="Ellipse 682" cx="2.738" cy="2.738" rx="2.738" ry="2.738" transform="translate(6.402 32.814)" fill="#5ab6e5" stroke="#5ab6e5" stroke-width="3"/>
          <path id="Path_1987" data-name="Path 1987" d="M7.321,66.2H24.165c1.425,6.39,3.761,8.875,5.657,10.9.315.335.617.659.907.99l.012,7.447A1.653,1.653,0,0,0,32.4,87.185h0a1.659,1.659,0,0,0,1.652-1.661l-.012-8.039a1.68,1.68,0,0,0-.356-1.027c-.451-.567-.94-1.089-1.45-1.632a16.549,16.549,0,0,1-4.668-8.66l37.39-.145a1.565,1.565,0,0,0,.191-.041,1.759,1.759,0,0,0,.356-.075,1.491,1.491,0,0,0,.29-.153,1.256,1.256,0,0,0,.195-.1c3.7-2.994,5.165-5.318,7.852-10.3,1.479-2.742,3.04-3.222,4.643-3.5a4.736,4.736,0,0,1,1.723.025l.162.025a2.55,2.55,0,0,1,1.412,2.568,2.609,2.609,0,0,1-.017.431c-.145,1.354-1.292,2.808-2.452,4.183a1.656,1.656,0,0,0-.389,1.069v4.369c-.041,2.887-5.935,10.781-13.228,11.493a1.658,1.658,0,0,0-1.5,1.648l0,7.852a1.658,1.658,0,0,0,1.653,1.657h0A1.659,1.659,0,0,0,67.5,85.516l0-6.436c7.07-1.466,13.2-8.151,14.479-12.9h9.662A7.26,7.26,0,0,0,98.9,58.931V15.858a7.26,7.26,0,0,0-7.252-7.252H69.565a3.455,3.455,0,0,0-.733-.787l-4.866-3.86a3.9,3.9,0,0,0-5.343.613h0l-.961,1.213L53.483,2.468a3.93,3.93,0,0,0-5.384.625L46.459,5.16,43.386,2.721a3.9,3.9,0,0,0-5.343.617l-1.7,2.125c-.066.083-.128.17-.186.257L33.438,3.558a3.979,3.979,0,0,0-5.459.625L26.231,6.39A3.83,3.83,0,0,0,25.395,8.6H7.321A7.26,7.26,0,0,0,.069,15.854V58.943A7.256,7.256,0,0,0,7.321,66.2ZM82.176,11.915h9.472a3.947,3.947,0,0,1,3.943,3.943V58.947a3.947,3.947,0,0,1-3.943,3.943H82.23V60.765a10.79,10.79,0,0,0,2.829-5.5,4.508,4.508,0,0,0,.021-.895,5.633,5.633,0,0,0-2.9-5.227V11.915ZM61.216,6.626c.091-.116.232-.178.688-.079l4.866,3.86c.162.128-.029.688-.05.75-.447,1.288-1.628,2.253-2.249,2.149L60.4,10.081a7.076,7.076,0,0,0-.033-2.386ZM48.969,7.31l1.715-2.158c.1-.133.249-.195.737-.087l4.941,3.922c.17.137-.008.679-.046.787-.46,1.317-1.768,2.245-2.319,2.191L49.056,8.047A.6.6,0,0,1,48.969,7.31Zm-10.031.211h0l1.69-2.133a.353.353,0,0,1,.319-.133,1.644,1.644,0,0,1,.373.05L45.2,8.387a6.524,6.524,0,0,0,.638,2.158c-.555.936-1.358,1.628-1.955,1.52L38.838,7.881A.492.492,0,0,1,38.938,7.521Zm-10.114.932h0l1.752-2.207a.415.415,0,0,1,.369-.153,1.861,1.861,0,0,1,.435.062l4.295,3.4a6.987,6.987,0,0,0,.683,1.537c-.5,1.309-1.785,2.253-2.394,2.162l-5.044-4a.58.58,0,0,1-.1-.8Zm-10.4,3.462H26.94l4.966,3.939c2.257,1.785,5.968-.07,7.389-3.2l2.535,2.013c2.05,1.615,5.339.24,6.941-2.617l3.168,2.51c1.884,1.487,4.771.489,6.494-1.814l3.98,3.16c2.336,1.851,6.27-.315,7.434-3.657.037-.112.075-.224.1-.335h8.909V48.49a8,8,0,0,0-.948.1,9.049,9.049,0,0,0-6.987,5.189c-2.547,4.726-3.823,6.61-6.585,8.925l-44.9.178H18.425ZM3.378,15.858a3.947,3.947,0,0,1,3.943-3.943h7.79V62.89H7.321a3.947,3.947,0,0,1-3.943-3.943Z" transform="translate(-0.069 -1.677)" fill="#5ab6e5" stroke="#5ab6e5" stroke-width="3"/>
        </g>
        <path id="noun_Hand_402441" d="M61.121,37.262l-.473-11.771c0-.649-.828-1.218-1.773-1.218q-5.675,0-8.867,1.948V7.874c0-2.841-3.428-5.2-7.566-5.2a9.2,9.2,0,0,0-4.374.974C36.885,1.542,34.048,0,30.738,0,26.6,0,23.172,2.354,23.172,5.2V5.52a10.784,10.784,0,0,0-4.02-.812c-4.138,0-7.566,2.354-7.566,5.2v6.251a10.784,10.784,0,0,0-4.02-.812C3.428,15.343,0,17.7,0,20.539V48.3C0,58.775,2.6,63.321,4.492,66.568c1.064,1.867,1.892,3.247,1.892,5.2,0,.649.828,1.218,1.773,1.218s1.773-.568,1.773-1.218c0-2.435-.946-4.14-2.128-6.089C6.029,62.59,3.547,58.287,3.547,48.3V20.539c0-1.542,1.773-2.76,4.02-2.76s4.02,1.218,4.02,2.76V40.915c0,.649.828,1.218,1.773,1.218s1.773-.568,1.773-1.218V9.9c0-1.542,1.773-2.76,4.02-2.76s4.02,1.218,4.02,2.76V39.372c0,.649.828,1.218,1.773,1.218s1.773-.568,1.773-1.218V5.2c0-1.542,1.773-2.76,4.02-2.76s4.02,1.218,4.02,2.76V39.372c0,.649.828,1.218,1.773,1.218s1.773-.568,1.773-1.218V7.874c0-1.542,1.773-2.76,4.02-2.76s4.02,1.218,4.02,2.76V30.2h0a14.333,14.333,0,0,0-1.182,6.251V46.679a13.113,13.113,0,0,0-9.694,7.063c-.355.649.118,1.3,1.064,1.542a1.984,1.984,0,0,0,2.246-.731c1.419-2.6,4.02-5.6,8.157-5.6.946,0,1.773-.568,1.773-1.218V36.45c0-7.631,3.783-9.417,8.394-9.66l.473,10.472V48.383c0,10.229-5.675,14.207-10.285,17.454-2.483,1.786-4.847,3.41-5.793,5.764-.236.649.355,1.3,1.3,1.461h.473a1.984,1.984,0,0,0,1.773-.893c.591-1.7,2.483-3,4.847-4.627,4.729-3.328,11.349-7.874,11.349-19.159Z" transform="translate(1304.236 478.158) rotate(-179)" fill="#2362c7" stroke="#2362c7" stroke-width="2"/>
      </g>
    </g>
  </g>
</svg>
