<svg xmlns="http://www.w3.org/2000/svg" width="246" height="339" viewBox="0 0 246 339">
  <g id="Group_3295" data-name="Group 3295" transform="translate(-35 -73)">
    <g id="Group_2991" data-name="Group 2991" transform="translate(-1116 -229)">
      <g id="Group_2779" data-name="Group 2779" transform="translate(1154 302.954)">
        <g id="Group_1800" data-name="Group 1800" transform="translate(0 0)">
          <text id="Please_return_this_device_to_the_notary" data-name="Please return this device
 to the notary" transform="translate(120 18.046)" fill="#707070" font-size="20" font-family="Montserrat-Regular, Montserrat"><tspan x="-122.68" y="0">Please return this device</tspan><tspan x="-67.49" y="24" xml:space="preserve"> to the notary</tspan></text>
        </g>
      </g>
      <g id="noun_hands_holding_smartphone_1264229" data-name="noun_hands holding smartphone_1264229" transform="translate(1224.963 466.827)">
        <path id="Path_1986" data-name="Path 1986" d="M22.524,17.643a1.451,1.451,0,0,0,1.45-1.45V10.669a1.45,1.45,0,1,0-2.9,0v5.525A1.446,1.446,0,0,0,22.524,17.643Z" transform="translate(65.92 22.017)" fill="#5ab6e5" stroke="#5ab6e5" stroke-width="3"/>
        <ellipse id="Ellipse_681" data-name="Ellipse 681" cx="1.59" cy="1.59" rx="1.59" ry="1.59" transform="translate(86.853 45.256)" fill="#5ab6e5" stroke="#5ab6e5" stroke-width="3"/>
        <ellipse id="Ellipse_682" data-name="Ellipse 682" cx="2.738" cy="2.738" rx="2.738" ry="2.738" transform="translate(6.402 32.814)" fill="#5ab6e5" stroke="#5ab6e5" stroke-width="3"/>
        <path id="Path_1987" data-name="Path 1987" d="M7.321,66.2H24.165c1.425,6.39,3.761,8.875,5.657,10.9.315.335.617.659.907.99l.012,7.447A1.653,1.653,0,0,0,32.4,87.185h0a1.659,1.659,0,0,0,1.652-1.661l-.012-8.039a1.68,1.68,0,0,0-.356-1.027c-.451-.567-.94-1.089-1.45-1.632a16.549,16.549,0,0,1-4.668-8.66l37.39-.145a1.565,1.565,0,0,0,.191-.041,1.759,1.759,0,0,0,.356-.075,1.491,1.491,0,0,0,.29-.153,1.256,1.256,0,0,0,.195-.1c3.7-2.994,5.165-5.318,7.852-10.3,1.479-2.742,3.04-3.222,4.643-3.5a4.736,4.736,0,0,1,1.723.025l.162.025a2.55,2.55,0,0,1,1.412,2.568,2.609,2.609,0,0,1-.017.431c-.145,1.354-1.292,2.808-2.452,4.183a1.656,1.656,0,0,0-.389,1.069v4.369c-.041,2.887-5.935,10.781-13.228,11.493a1.658,1.658,0,0,0-1.5,1.648l0,7.852a1.658,1.658,0,0,0,1.653,1.657h0A1.659,1.659,0,0,0,67.5,85.516l0-6.436c7.07-1.466,13.2-8.151,14.479-12.9h9.662A7.26,7.26,0,0,0,98.9,58.931V15.858a7.26,7.26,0,0,0-7.252-7.252H69.565a3.455,3.455,0,0,0-.733-.787l-4.866-3.86a3.9,3.9,0,0,0-5.343.613h0l-.961,1.213L53.483,2.468a3.93,3.93,0,0,0-5.384.625L46.459,5.16,43.386,2.721a3.9,3.9,0,0,0-5.343.617l-1.7,2.125c-.066.083-.128.17-.186.257L33.438,3.558a3.979,3.979,0,0,0-5.459.625L26.231,6.39A3.83,3.83,0,0,0,25.395,8.6H7.321A7.26,7.26,0,0,0,.069,15.854V58.943A7.256,7.256,0,0,0,7.321,66.2ZM82.176,11.915h9.472a3.947,3.947,0,0,1,3.943,3.943V58.947a3.947,3.947,0,0,1-3.943,3.943H82.23V60.765a10.79,10.79,0,0,0,2.829-5.5,4.508,4.508,0,0,0,.021-.895,5.633,5.633,0,0,0-2.9-5.227V11.915ZM61.216,6.626c.091-.116.232-.178.688-.079l4.866,3.86c.162.128-.029.688-.05.75-.447,1.288-1.628,2.253-2.249,2.149L60.4,10.081a7.076,7.076,0,0,0-.033-2.386ZM48.969,7.31l1.715-2.158c.1-.133.249-.195.737-.087l4.941,3.922c.17.137-.008.679-.046.787-.46,1.317-1.768,2.245-2.319,2.191L49.056,8.047A.6.6,0,0,1,48.969,7.31Zm-10.031.211h0l1.69-2.133a.353.353,0,0,1,.319-.133,1.644,1.644,0,0,1,.373.05L45.2,8.387a6.524,6.524,0,0,0,.638,2.158c-.555.936-1.358,1.628-1.955,1.52L38.838,7.881A.492.492,0,0,1,38.938,7.521Zm-10.114.932h0l1.752-2.207a.415.415,0,0,1,.369-.153,1.861,1.861,0,0,1,.435.062l4.295,3.4a6.987,6.987,0,0,0,.683,1.537c-.5,1.309-1.785,2.253-2.394,2.162l-5.044-4a.58.58,0,0,1-.1-.8Zm-10.4,3.462H26.94l4.966,3.939c2.257,1.785,5.968-.07,7.389-3.2l2.535,2.013c2.05,1.615,5.339.24,6.941-2.617l3.168,2.51c1.884,1.487,4.771.489,6.494-1.814l3.98,3.16c2.336,1.851,6.27-.315,7.434-3.657.037-.112.075-.224.1-.335h8.909V48.49a8,8,0,0,0-.948.1,9.049,9.049,0,0,0-6.987,5.189c-2.547,4.726-3.823,6.61-6.585,8.925l-44.9.178H18.425ZM3.378,15.858a3.947,3.947,0,0,1,3.943-3.943h7.79V62.89H7.321a3.947,3.947,0,0,1-3.943-3.943Z" transform="translate(-0.069 -1.677)" fill="#5ab6e5" stroke="#5ab6e5" stroke-width="3"/>
      </g>
      <path id="noun_Hand_402441" d="M61.121,37.262l-.473-11.771c0-.649-.828-1.218-1.773-1.218q-5.675,0-8.867,1.948V7.874c0-2.841-3.428-5.2-7.566-5.2a9.2,9.2,0,0,0-4.374.974C36.885,1.542,34.048,0,30.738,0,26.6,0,23.172,2.354,23.172,5.2V5.52a10.784,10.784,0,0,0-4.02-.812c-4.138,0-7.566,2.354-7.566,5.2v6.251a10.784,10.784,0,0,0-4.02-.812C3.428,15.343,0,17.7,0,20.539V48.3C0,58.775,2.6,63.321,4.492,66.568c1.064,1.867,1.892,3.247,1.892,5.2,0,.649.828,1.218,1.773,1.218s1.773-.568,1.773-1.218c0-2.435-.946-4.14-2.128-6.089C6.029,62.59,3.547,58.287,3.547,48.3V20.539c0-1.542,1.773-2.76,4.02-2.76s4.02,1.218,4.02,2.76V40.915c0,.649.828,1.218,1.773,1.218s1.773-.568,1.773-1.218V9.9c0-1.542,1.773-2.76,4.02-2.76s4.02,1.218,4.02,2.76V39.372c0,.649.828,1.218,1.773,1.218s1.773-.568,1.773-1.218V5.2c0-1.542,1.773-2.76,4.02-2.76s4.02,1.218,4.02,2.76V39.372c0,.649.828,1.218,1.773,1.218s1.773-.568,1.773-1.218V7.874c0-1.542,1.773-2.76,4.02-2.76s4.02,1.218,4.02,2.76V30.2h0a14.333,14.333,0,0,0-1.182,6.251V46.679a13.113,13.113,0,0,0-9.694,7.063c-.355.649.118,1.3,1.064,1.542a1.984,1.984,0,0,0,2.246-.731c1.419-2.6,4.02-5.6,8.157-5.6.946,0,1.773-.568,1.773-1.218V36.45c0-7.631,3.783-9.417,8.394-9.66l.473,10.472V48.383c0,10.229-5.675,14.207-10.285,17.454-2.483,1.786-4.847,3.41-5.793,5.764-.236.649.355,1.3,1.3,1.461h.473a1.984,1.984,0,0,0,1.773-.893c.591-1.7,2.483-3,4.847-4.627,4.729-3.328,11.349-7.874,11.349-19.159Z" transform="translate(1304.236 458.158) rotate(-179)" fill="#2362c7" stroke="#2362c7" stroke-width="2"/>
    </g>
    <g id="Group_2992" data-name="Group 2992" transform="translate(38 265.954)">
      <g id="Group_1800-2" data-name="Group 1800" transform="translate(0 0)">
        <text id="Tap_next_if_you_re_notary_of_this_document" data-name="Tap next if you&apos;re notary
of this document" transform="translate(120 118.046)" fill="#707070" font-size="19" font-family="Montserrat-Regular, Montserrat"><tspan x="-113.601" y="0">Tap next if you are the</tspan><tspan x="-125" y="23">notary of this document</tspan></text>
      </g>
    </g>
  </g>
</svg>
