<svg xmlns="http://www.w3.org/2000/svg" width="226.818" height="334.313" viewBox="0 0 226.818 334.313">
  <g id="Group_2542" data-name="Group 2542" transform="translate(-70 -128.687)">
    <g id="Group_2313" data-name="Group 2313" transform="translate(0 11)">
      <g id="Group_2310" data-name="Group 2310" transform="translate(-86 -547.28)">
        <text id="Share_Documents" data-name="Share
Documents" transform="translate(313.818 870.86)" fill="#2362c7" font-size="23" font-family="Montserrat-Medium, Montserrat" font-weight="500">
          <tspan x="-36.558" y="0">Share </tspan>
          <tspan x="-68.735" y="28">Documents</tspan>
        </text>
      </g>
      <g id="Group_2311" data-name="Group 2311" transform="translate(16694 9672)">
        <g id="noun_Monitor_388884" transform="translate(-16624 -9373.709)">
          <path id="Path_1828" data-name="Path 1828" d="M0,45.375a3.009,3.009,0,0,0,3,3H27v6.916H17.875v4h28.25v-4H37V48.375H61a3.009,3.009,0,0,0,3-3V7.709a3.009,3.009,0,0,0-3-3H3a3.009,3.009,0,0,0-3,3Z" fill="#2362c7" />
        </g>
        <path id="noun_Share_887593" d="M23.069,18.84a4.339,4.339,0,0,0-2.653.915l-6.953-3.843a4.606,4.606,0,0,0,.229-1.418,4.843,4.843,0,0,0-.229-1.418l7.319-4.071a4.544,4.544,0,0,0,2.287.64A4.373,4.373,0,0,0,27.415,5.3a4.346,4.346,0,0,0-8.691.046,3.97,3.97,0,0,0,.457,1.921l-7,3.934a4.182,4.182,0,0,0-2.836-1.052,4.346,4.346,0,0,0,0,8.691,4.267,4.267,0,0,0,2.836-1.052l6.862,3.8a4.752,4.752,0,0,0-.32,1.6,4.346,4.346,0,1,0,4.346-4.346Z" transform="translate(-16608.412 -9361.121)" fill="#fff" />
      </g>
    </g>
    <g id="Group_2314" data-name="Group 2314" transform="translate(0 -70)">
      <g id="Group_2319" data-name="Group 2319">
        <path id="Union_17" data-name="Union 17" d="M7.343,53.512a7.691,7.691,0,0,1-3.307-.675A6.408,6.408,0,0,1,.478,48.886,8.5,8.5,0,0,1,0,45.918q.025-2.065.04-4.13C.048,33.708.072,28.642.088,19.7V8.217H.107q0-.775.008-1.551C.139,2.634,2.5.2,6.4.1,8.774.041,11.153.046,13.532.049c2.3,0,4.59.007,6.888-.05a7.007,7.007,0,0,1,5.772,2.948c.771.925,1.533,1.856,2.332,2.755a6.8,6.8,0,0,0,5.4,2.41c3.062-.008,6.125.037,9.188.083l2.429.035h10.9a8.133,8.133,0,0,1,2.341.276,6.153,6.153,0,0,1,3.852,2.814A8.082,8.082,0,0,1,63.85,15.6c.01.276,0,.437,0,.437s-.026,15.709-.028,28q.019.9.041,1.8a7.723,7.723,0,0,1-.707,3.47,6.825,6.825,0,0,1-6.445,4.2h-.378c-3.9-.1-7.8-.124-11.7-.115-4.163.011-8.328.05-12.49.051h-.309c-2.4,0-4.8-.014-7.2-.03-2.687-.016-5.374-.033-8.06-.028-2.917.007-5.834.039-8.746.125q-.164,0-.324,0Z" transform="translate(70.002 292.002)" fill="#2362c7" />
        <g id="noun_Lock_2231825" transform="translate(88 307)">
          <path id="Path_1830" data-name="Path 1830" d="M12.75,20.523v2.352a1.25,1.25,0,0,0,2.5,0V20.523a1.875,1.875,0,1,0-2.5,0ZM6.5,12.25V8.5a7.5,7.5,0,0,1,15,0v3.75h1.25A1.25,1.25,0,0,1,24,13.5V27.25a1.25,1.25,0,0,1-1.25,1.25H5.25A1.25,1.25,0,0,1,4,27.25V13.5a1.25,1.25,0,0,1,1.25-1.25ZM14,3.5a5,5,0,0,0-5,5v3.75H19V8.5A5,5,0,0,0,14,3.5Z" fill="#fff" />
        </g>
      </g>
      <g id="Group_2315" data-name="Group 2315" transform="translate(-86 -557.28)">
        <text id="Store_Documents" data-name="Store
Documents" transform="translate(313.818 870.86)" fill="#2362c7" font-size="23" font-family="Montserrat-Medium, Montserrat" font-weight="500">
          <tspan x="-30.613" y="0">Store</tspan>
          <tspan x="-68.735" y="28">Documents</tspan>
        </text>
      </g>
    </g>
    <g id="Group_2324" data-name="Group 2324" transform="translate(0 -78)">
      <g id="Group_2309" data-name="Group 2309" transform="translate(-96 -635.28)">
        <text id="Upload_Documents" data-name="Upload
Documents" transform="translate(313.818 870.86)" fill="#2362c7" font-size="23" font-family="Montserrat-Medium, Montserrat" font-weight="500">
          <tspan x="-45.241" y="0">Upload </tspan>
          <tspan x="-68.735" y="28">Documents</tspan>
        </text>
      </g>
      <g id="Group_2323" data-name="Group 2323" transform="translate(0 18)">
        <g id="Group_2318" data-name="Group 2318" transform="translate(75.928 188.687)">
          <path id="Subtraction_21" data-name="Subtraction 21" d="M49.47,69.313H5.114a5.121,5.121,0,0,1-3.606-1.486A5.043,5.043,0,0,1,0,64.254V5.059A5.043,5.043,0,0,1,1.509,1.486,5.119,5.119,0,0,1,5.114,0H37.606V12.939a4.412,4.412,0,0,0,4.429,4.39H54.584V64.254a5.044,5.044,0,0,1-1.509,3.573A5.12,5.12,0,0,1,49.47,69.313Zm3.346-54.506H42.03a1.878,1.878,0,0,1-1.886-1.869V1.866l12.67,12.941Z" transform="translate(0 0)" fill="#2362c7" />
        </g>
        <g id="Group_2322" data-name="Group 2322">
          <path id="Path_1835" data-name="Path 1835" d="M113.917,401.934H90.589a1.417,1.417,0,0,0,0,2.835h23.342a1.417,1.417,0,1,0-.014-2.835Zm0,0" transform="translate(-0.01 -163.873)" fill="#fff" stroke="#fff" stroke-width="0.3" />
          <path id="Path_1836" data-name="Path 1836" d="M120.859,181.592l5.839-6.279V190.79a1.417,1.417,0,0,0,2.835,0V175.314l5.839,6.279a1.414,1.414,0,0,0,2.069-1.927l-8.305-8.914a1.407,1.407,0,0,0-2.069,0l-8.305,8.914a1.412,1.412,0,0,0,.071,2A1.446,1.446,0,0,0,120.859,181.592Zm0,0" transform="translate(-25.873 41.219)" fill="#fff" stroke="#fff" stroke-width="0.3" />
        </g>
      </g>
    </g>
    <text id="This_account_type_will_only_allow_you_to_upload_store_and_share_your_own_documents." data-name="This account type will only
allow you to upload store
and share your own
documents." transform="translate(180 402)" fill="#707070" font-size="16" font-family="Montserrat-Regular, Montserrat">
      <tspan x="-107.384" y="0">This account type will only </tspan>
      <tspan x="-102.232" y="19">allow you to upload store </tspan>
      <tspan x="-81.112" y="38">and share your own </tspan>
      <tspan x="-47.936" y="57">documents.</tspan>
    </text>
  </g>
</svg>
