<svg id="Group_1238" data-name="Group 1238" xmlns="http://www.w3.org/2000/svg" width="26.625" height="33.379" viewBox="0 0 26.625 33.379">
  <g id="Group_1177" data-name="Group 1177">
    <g id="Group_1176" data-name="Group 1176">
      <path id="Path_1176" data-name="Path 1176" d="M24.555,26.191H21.731V19.262c0-.661-.4-1.2-.888-1.2H5.782c-.49,0-.888.536-.888,1.2v6.928H2.071C.929,26.191,0,27.444,0,28.984V41.028c0,1.54.929,2.793,2.071,2.793H4.895v6.426c0,.661.4,1.2.888,1.2H20.843c.49,0,.888-.536.888-1.2V43.821h2.824c1.142,0,2.071-1.253,2.071-2.793V28.984C26.625,27.444,25.7,26.191,24.555,26.191ZM6.67,20.459H19.956v5.731H6.67ZM19.955,49.05H6.67V39.256H19.955C19.955,39.552,19.955,48.825,19.955,49.05Zm4.895-8.022c0,.22-.133.4-.3.4H21.73V38.059c0-.661-.4-1.2-.888-1.2H5.782c-.49,0-.888.536-.888,1.2v3.368H2.071c-.163,0-.3-.179-.3-.4V28.984c0-.22.133-.4.3-.4H24.555c.163,0,.3.179.3.4V41.028Z" transform="translate(0 -18.065)" fill="#fff"/>
    </g>
  </g>
  <g id="Group_1179" data-name="Group 1179" transform="translate(17.696 12.761)">
    <g id="Group_1178" data-name="Group 1178">
      <path id="Path_1177" data-name="Path 1177" d="M343.445,199.988h-2.259c-.49,0-.888.536-.888,1.2s.4,1.2.888,1.2h2.259c.49,0,.887-.536.887-1.2S343.935,199.988,343.445,199.988Z" transform="translate(-340.298 -199.988)" fill="#fff"/>
    </g>
  </g>
  <g id="Group_1181" data-name="Group 1181" transform="translate(8.579 26.778)">
    <g id="Group_1180" data-name="Group 1180">
      <path id="Path_1178" data-name="Path 1178" d="M173.556,399.834h-7.692c-.49,0-.888.536-.888,1.2s.4,1.2.888,1.2h7.692c.49,0,.888-.536.888-1.2S174.046,399.834,173.556,399.834Z" transform="translate(-164.977 -399.834)" fill="#fff"/>
    </g>
  </g>
  <g id="Group_1183" data-name="Group 1183" transform="translate(8.579 23.003)">
    <g id="Group_1182" data-name="Group 1182">
      <path id="Path_1179" data-name="Path 1179" d="M173.556,346.006h-7.692c-.49,0-.888.536-.888,1.2s.4,1.2.888,1.2h7.692c.49,0,.888-.536.888-1.2S174.046,346.006,173.556,346.006Z" transform="translate(-164.977 -346.006)" fill="#fff"/>
    </g>
  </g>
</svg>
