<svg xmlns="http://www.w3.org/2000/svg" xmlns:xlink="http://www.w3.org/1999/xlink" width="270.953" height="332.795" viewBox="0 0 270.953 332.795">
  <defs>
    <filter id="Rectangle_895" x="41.977" y="154.5" width="187" height="61" filterUnits="userSpaceOnUse">
      <feOffset dy="3" input="SourceAlpha"/>
      <feGaussianBlur stdDeviation="3" result="blur"/>
      <feFlood flood-opacity="0.161"/>
      <feComposite operator="in" in2="blur"/>
      <feComposite in="SourceGraphic"/>
    </filter>
  </defs>
  <g id="Group_1592" data-name="Group 1592" transform="translate(-23.023 -133.5)">
    <g id="Path_1298" data-name="Path 1298" transform="translate(25.023 135.5)" fill="#fff" stroke-dasharray="10 15">
      <path d="M0,0H266.953V328.795H0Z" stroke="none"/>
      <path d="M -3.0517578125e-05 -2.000030517578125 L 9.999969482421875 -2.000030517578125 L 9.999969482421875 -3.0517578125e-05 C 9.999969482421875 -3.0517578125e-05 -3.0517578125e-05 -3.0517578125e-05 -3.0517578125e-05 -3.0517578125e-05 L -3.0517578125e-05 -2.000030517578125 Z M 24.99998474121094 -2.000030517578125 L 34.99998474121094 -2.000030517578125 L 34.99998474121094 -3.0517578125e-05 C 34.99998474121094 -3.0517578125e-05 24.99998474121094 -3.0517578125e-05 24.99998474121094 -3.0517578125e-05 L 24.99998474121094 -2.000030517578125 Z M 49.99998474121094 -2.000030517578125 L 59.99998474121094 -2.000030517578125 L 59.99998474121094 -3.0517578125e-05 C 59.99998474121094 -3.0517578125e-05 49.99998474121094 -3.0517578125e-05 49.99998474121094 -3.0517578125e-05 L 49.99998474121094 -2.000030517578125 Z M 74.99998474121094 -2.000030517578125 L 84.99998474121094 -2.000030517578125 L 84.99998474121094 -3.0517578125e-05 C 84.99998474121094 -3.0517578125e-05 74.99998474121094 -3.0517578125e-05 74.99998474121094 -3.0517578125e-05 L 74.99998474121094 -2.000030517578125 Z M 99.99998474121094 -2.000030517578125 L 109.9999847412109 -2.000030517578125 L 109.9999847412109 -3.0517578125e-05 C 109.9999847412109 -3.0517578125e-05 99.99998474121094 -3.0517578125e-05 99.99998474121094 -3.0517578125e-05 L 99.99998474121094 -2.000030517578125 Z M 124.9999847412109 -2.000030517578125 L 134.9999847412109 -2.000030517578125 L 134.9999847412109 -3.0517578125e-05 C 134.9999847412109 -3.0517578125e-05 124.9999847412109 -3.0517578125e-05 124.9999847412109 -3.0517578125e-05 L 124.9999847412109 -2.000030517578125 Z M 149.9999694824219 -2.000030517578125 L 159.9999694824219 -2.000030517578125 L 159.9999694824219 -3.0517578125e-05 C 159.9999694824219 -3.0517578125e-05 149.9999694824219 -3.0517578125e-05 149.9999694824219 -3.0517578125e-05 L 149.9999694824219 -2.000030517578125 Z M 174.9999694824219 -2.000030517578125 L 184.9999694824219 -2.000030517578125 L 184.9999694824219 -3.0517578125e-05 C 184.9999694824219 -3.0517578125e-05 174.9999694824219 -3.0517578125e-05 174.9999694824219 -3.0517578125e-05 L 174.9999694824219 -2.000030517578125 Z M 199.9999694824219 -2.000030517578125 L 209.9999847412109 -2.000030517578125 L 209.9999847412109 -3.0517578125e-05 C 209.9999847412109 -3.0517578125e-05 199.9999694824219 -3.0517578125e-05 199.9999694824219 -3.0517578125e-05 L 199.9999694824219 -2.000030517578125 Z M 224.9999847412109 -2.000030517578125 L 234.9999847412109 -2.000030517578125 L 234.9999847412109 -3.0517578125e-05 C 234.9999847412109 -3.0517578125e-05 224.9999847412109 -3.0517578125e-05 224.9999847412109 -3.0517578125e-05 L 224.9999847412109 -2.000030517578125 Z M 249.9999847412109 -2.000030517578125 L 259.9999694824219 -2.000030517578125 L 259.9999694824219 -3.0517578125e-05 C 259.9999694824219 -3.0517578125e-05 249.9999847412109 -3.0517578125e-05 249.9999847412109 -3.0517578125e-05 L 249.9999847412109 -2.000030517578125 Z M 266.9530944824219 8.046844482421875 L 268.9530944824219 8.046844482421875 L 268.9530944824219 18.04684448242188 L 266.9530944824219 18.04684448242188 L 266.9530944824219 8.046844482421875 Z M 266.9530944824219 33.04684448242188 L 268.9530944824219 33.04684448242188 L 268.9530944824219 43.04684448242188 L 266.9530944824219 43.04684448242188 L 266.9530944824219 33.04684448242188 Z M 266.9530944824219 58.04684448242188 L 268.9530944824219 58.04684448242188 L 268.9530944824219 68.04684448242188 L 266.9530944824219 68.04684448242188 L 266.9530944824219 58.04684448242188 Z M 266.9530944824219 83.04684448242188 L 268.9530944824219 83.04684448242188 L 268.9530944824219 93.04684448242188 L 266.9530944824219 93.04684448242188 L 266.9530944824219 83.04684448242188 Z M 266.9530944824219 108.0468444824219 L 268.9530944824219 108.0468444824219 L 268.9530944824219 118.0468444824219 L 266.9530944824219 118.0468444824219 L 266.9530944824219 108.0468444824219 Z M 266.9530944824219 133.0468444824219 L 268.9530944824219 133.0468444824219 L 268.9530944824219 143.0468444824219 L 266.9530944824219 143.0468444824219 L 266.9530944824219 133.0468444824219 Z M 266.9530944824219 158.0468444824219 L 268.9530944824219 158.0468444824219 L 268.9530944824219 168.0468444824219 L 266.9530944824219 168.0468444824219 L 266.9530944824219 158.0468444824219 Z M 266.9530944824219 183.0468444824219 L 268.9530944824219 183.0468444824219 L 268.9530944824219 193.0468444824219 L 266.9530944824219 193.0468444824219 L 266.9530944824219 183.0468444824219 Z M 266.9530944824219 208.0468444824219 L 268.9530944824219 208.0468444824219 L 268.9530944824219 218.0468444824219 L 266.9530944824219 218.0468444824219 L 266.9530944824219 208.0468444824219 Z M 266.9530944824219 233.0468444824219 L 268.9530944824219 233.0468444824219 L 268.9530944824219 243.0468444824219 L 266.9530944824219 243.0468444824219 L 266.9530944824219 233.0468444824219 Z M 266.9530944824219 258.0468444824219 L 268.9530944824219 258.0468444824219 L 268.9530944824219 268.0468444824219 L 266.9530944824219 268.0468444824219 L 266.9530944824219 258.0468444824219 Z M 266.9530944824219 283.0468444824219 L 268.9530944824219 283.0468444824219 L 268.9530944824219 293.0468444824219 L 266.9530944824219 293.0468444824219 L 266.9530944824219 283.0468444824219 Z M 266.9530944824219 308.0468444824219 L 268.9530944824219 308.0468444824219 L 268.9530944824219 318.0468444824219 L 266.9530944824219 318.0468444824219 L 266.9530944824219 308.0468444824219 Z M 252.7011871337891 328.794921875 L 262.7012023925781 328.794921875 L 262.7012023925781 330.794921875 L 252.7011871337891 330.794921875 L 252.7011871337891 328.794921875 Z M 227.7011871337891 328.794921875 L 237.7011871337891 328.794921875 L 237.7011871337891 330.794921875 L 227.7011871337891 330.794921875 L 227.7011871337891 328.794921875 Z M 202.7011871337891 328.794921875 L 212.7011871337891 328.794921875 L 212.7011871337891 330.794921875 L 202.7011871337891 330.794921875 L 202.7011871337891 328.794921875 Z M 177.7011871337891 328.794921875 L 187.7011871337891 328.794921875 L 187.7011871337891 330.794921875 L 177.7011871337891 330.794921875 L 177.7011871337891 328.794921875 Z M 152.7011871337891 328.794921875 L 162.7011871337891 328.794921875 L 162.7011871337891 330.794921875 L 152.7011871337891 330.794921875 L 152.7011871337891 328.794921875 Z M 127.7011871337891 328.794921875 L 137.7011871337891 328.794921875 L 137.7011871337891 330.794921875 L 127.7011871337891 330.794921875 L 127.7011871337891 328.794921875 Z M 102.7011871337891 328.794921875 L 112.7011871337891 328.794921875 L 112.7011871337891 330.794921875 L 102.7011871337891 330.794921875 L 102.7011871337891 328.794921875 Z M 77.70118713378906 328.794921875 L 87.70118713378906 328.794921875 L 87.70118713378906 330.794921875 L 77.70118713378906 330.794921875 L 77.70118713378906 328.794921875 Z M 52.70118713378906 328.794921875 L 62.70118713378906 328.794921875 L 62.70118713378906 330.794921875 L 52.70118713378906 330.794921875 L 52.70118713378906 328.794921875 Z M 27.70118713378906 328.794921875 L 37.70118713378906 328.794921875 L 37.70118713378906 330.794921875 L 27.70118713378906 330.794921875 L 27.70118713378906 328.794921875 Z M 2.701202392578125 328.794921875 L 12.70118713378906 328.794921875 L 12.70118713378906 330.794921875 L 2.701202392578125 330.794921875 L 2.701202392578125 328.794921875 Z M -2.000030517578125 306.4961547851562 L -3.0517578125e-05 306.4961547851562 C -3.0517578125e-05 306.4961547851562 -3.0517578125e-05 316.4961547851562 -3.0517578125e-05 316.4961547851562 L -2.000030517578125 316.4961547851562 L -2.000030517578125 306.4961547851562 Z M -2.000030517578125 281.4961547851562 L -3.0517578125e-05 281.4961547851562 C -3.0517578125e-05 281.4961547851562 -3.0517578125e-05 291.4961547851562 -3.0517578125e-05 291.4961547851562 L -2.000030517578125 291.4961547851562 L -2.000030517578125 281.4961547851562 Z M -2.000030517578125 256.4961547851562 L -3.0517578125e-05 256.4961547851562 C -3.0517578125e-05 256.4961547851562 -3.0517578125e-05 266.4961547851562 -3.0517578125e-05 266.4961547851562 L -2.000030517578125 266.4961547851562 L -2.000030517578125 256.4961547851562 Z M -2.000030517578125 231.4961395263672 L -3.0517578125e-05 231.4961395263672 C -3.0517578125e-05 231.4961395263672 -3.0517578125e-05 241.4961395263672 -3.0517578125e-05 241.4961395263672 L -2.000030517578125 241.4961395263672 L -2.000030517578125 231.4961395263672 Z M -2.000030517578125 206.4961395263672 L -3.0517578125e-05 206.4961395263672 C -3.0517578125e-05 206.4961395263672 -3.0517578125e-05 216.4961395263672 -3.0517578125e-05 216.4961395263672 L -2.000030517578125 216.4961395263672 L -2.000030517578125 206.4961395263672 Z M -2.000030517578125 181.4961395263672 L -3.0517578125e-05 181.4961395263672 C -3.0517578125e-05 181.4961395263672 -3.0517578125e-05 191.4961395263672 -3.0517578125e-05 191.4961395263672 L -2.000030517578125 191.4961395263672 L -2.000030517578125 181.4961395263672 Z M -2.000030517578125 156.4961395263672 L -3.0517578125e-05 156.4961395263672 C -3.0517578125e-05 156.4961395263672 -3.0517578125e-05 166.4961395263672 -3.0517578125e-05 166.4961395263672 L -2.000030517578125 166.4961395263672 L -2.000030517578125 156.4961395263672 Z M -2.000030517578125 131.4961395263672 L -3.0517578125e-05 131.4961395263672 C -3.0517578125e-05 131.4961395263672 -3.0517578125e-05 141.4961395263672 -3.0517578125e-05 141.4961395263672 L -2.000030517578125 141.4961395263672 L -2.000030517578125 131.4961395263672 Z M -2.000030517578125 106.4961395263672 L -3.0517578125e-05 106.4961395263672 C -3.0517578125e-05 106.4961395263672 -3.0517578125e-05 116.4961395263672 -3.0517578125e-05 116.4961395263672 L -2.000030517578125 116.4961395263672 L -2.000030517578125 106.4961395263672 Z M -2.000030517578125 81.49613952636719 L -3.0517578125e-05 81.49613952636719 C -3.0517578125e-05 81.49613952636719 -3.0517578125e-05 91.49613952636719 -3.0517578125e-05 91.49613952636719 L -2.000030517578125 91.49613952636719 L -2.000030517578125 81.49613952636719 Z M -2.000030517578125 56.49615478515625 L -3.0517578125e-05 56.49615478515625 C -3.0517578125e-05 56.49615478515625 -3.0517578125e-05 66.49615478515625 -3.0517578125e-05 66.49615478515625 L -2.000030517578125 66.49615478515625 L -2.000030517578125 56.49615478515625 Z M -2.000030517578125 31.49615478515625 L -3.0517578125e-05 31.49615478515625 C -3.0517578125e-05 31.49615478515625 -3.0517578125e-05 41.49615478515625 -3.0517578125e-05 41.49615478515625 L -2.000030517578125 41.49615478515625 L -2.000030517578125 31.49615478515625 Z M -2.000030517578125 6.49615478515625 L -3.0517578125e-05 6.49615478515625 C -3.0517578125e-05 6.49615478515625 -3.0517578125e-05 16.49615478515625 -3.0517578125e-05 16.49615478515625 L -2.000030517578125 16.49615478515625 L -2.000030517578125 6.49615478515625 Z" stroke="none" fill="#707070"/>
    </g>
    <g id="Group_1438" data-name="Group 1438" transform="translate(-28 1)">
      <g id="Group_1035" data-name="Group 1035" transform="translate(102 293)">
        <g transform="matrix(1, 0, 0, 1, -50.98, -160.5)" filter="url(#Rectangle_895)">
          <rect id="Rectangle_895-2" data-name="Rectangle 895" width="169" height="43" rx="11" transform="translate(50.98 160.5)" fill="#fff"/>
        </g>
        <g id="upload" transform="translate(15.293 9.176)" opacity="0.6">
          <g id="Group_1032" data-name="Group 1032" transform="translate(5.424)">
            <g id="Group_1031" data-name="Group 1031" transform="translate(0)">
              <path id="Path_1134" data-name="Path 1134" d="M140.2,6.464,134.78.265a.773.773,0,0,0-1.165,0l-5.424,6.2a.774.774,0,0,0,.583,1.285h3.1V17.821a.775.775,0,0,0,.775.775h3.1a.775.775,0,0,0,.775-.775V7.748h3.1a.774.774,0,0,0,.583-1.285Z" transform="translate(-127.998)" fill="#484848"/>
            </g>
          </g>
          <g id="Group_1034" data-name="Group 1034" transform="translate(0 17.047)">
            <g id="Group_1033" data-name="Group 1033">
              <path id="Path_1135" data-name="Path 1135" d="M36.146,352v4.649H19.1V352H16v6.2a1.549,1.549,0,0,0,1.55,1.55H37.7a1.548,1.548,0,0,0,1.55-1.55V352Z" transform="translate(-16 -352)" fill="#484848"/>
            </g>
          </g>
        </g>
        <text id="Upload_File" data-name="Upload File" transform="translate(51 28)" fill="#484848" font-size="18" font-family="Montserrat-Regular, Montserrat" opacity="0.6"><tspan x="0" y="0">Upload File</tspan></text>
      </g>
      <text id="Tap_here_to_replace_this_document_" data-name="Tap here to replace 
this document " transform="translate(191 263)" fill="#484848" font-size="14" font-family="Montserrat-Regular, Montserrat" opacity="0.4"><tspan x="-68.873" y="0">Tap here to replace </tspan><tspan x="-53.592" y="18">this document </tspan></text>
    </g>
  </g>
</svg>
