<svg xmlns="http://www.w3.org/2000/svg" width="70" height="70" viewBox="0 0 70 70">
  <g id="Group_2537" data-name="Group 2537" transform="translate(-68 -128.687)">
    <g id="Group_2314" data-name="Group 2314" transform="translate(0 -65)">
      <g id="Group_2325" data-name="Group 2325" transform="translate(16677.672 9422.428)">
        <path id="noun_Stamp_831862" d="M114.76,43.509a7.028,7.028,0,0,0,0,8.394,7.028,7.028,0,0,1-3.582,10.921,7.028,7.028,0,0,0-4.933,6.758,7.015,7.015,0,0,1-9.272,6.758A7.028,7.028,0,0,0,89,78.936a7.028,7.028,0,0,1-11.462,0,7.028,7.028,0,0,0-7.975-2.6,7.015,7.015,0,0,1-9.272-6.758,7.029,7.029,0,0,0-5-6.758A7.029,7.029,0,0,1,51.746,51.93a7.029,7.029,0,0,0,0-8.394A7.029,7.029,0,0,1,55.288,32.6a7.029,7.029,0,0,0,4.933-6.758,7.015,7.015,0,0,1,9.272-6.758,7.029,7.029,0,0,0,7.975-2.6,7.029,7.029,0,0,1,11.462,0,7.029,7.029,0,0,0,7.975,2.6,7.015,7.015,0,0,1,9.272,6.758A7.028,7.028,0,0,0,111.11,32.6a7.029,7.029,0,0,1,3.649,10.908Zm-21.18-3.8a4.136,4.136,0,0,0-5.853,0L80.536,46.9,78.82,45.185a4.138,4.138,0,1,0-5.853,5.853l1.717,1.717,2.933,2.933a4.15,4.15,0,0,0,5.853,0l2.906-2.933,7.191-7.191a4.136,4.136,0,0,0,.014-5.853Z" transform="translate(-16657 -9242.131)" fill="#4ba9d9" />
        <circle id="Ellipse_675" data-name="Ellipse 675" cx="20.5" cy="20.5" r="20.5" transform="translate(-16594.672 -9216.428)" fill="#4ba9d9" />
        <g id="noun_Stamp_1471848_1_" data-name="noun_Stamp_1471848 (1)" transform="translate(-16587.717 -9213.25)">
          <path id="Path_1829" data-name="Path 1829" d="M36.61,33.768V27.835a6.578,6.578,0,1,0-5.311,0v5.693a2.155,2.155,0,0,1-1.627,2.105L23.118,37.26A3.852,3.852,0,0,0,20.2,41.04v2.679H48.571V41.088a3.885,3.885,0,0,0-3.014-3.78l-7.511-1.722A1.844,1.844,0,0,1,36.61,33.768Z" transform="translate(-20.2 -15.209)" fill="#fff" />
          <rect id="Rectangle_1282" data-name="Rectangle 1282" width="26.266" height="2.296" transform="translate(1.053 30.95)" fill="#fff" />
        </g>
      </g>
    </g>
  </g>
</svg>