<svg xmlns="http://www.w3.org/2000/svg" width="29.736" height="30.533" viewBox="0 0 29.736 30.533">
  <g id="Group_1818" data-name="Group 1818" transform="translate(-623.943 -639.674)">
    <g id="Group_1764" data-name="Group 1764" transform="translate(606.586 625.468)">
      <g id="Group_1694" data-name="Group 1694" transform="translate(17.357 14.206)">
        <path id="Path_18" data-name="Path 18" d="M40.372,39.364l-7.149-7.34a13.033,13.033,0,0,0,2.84-8.157A12.707,12.707,0,0,0,23.532,11,12.7,12.7,0,0,0,11,23.867,12.7,12.7,0,0,0,23.532,36.735a12.269,12.269,0,0,0,7.938-2.91l7.149,7.334a1.215,1.215,0,0,0,1.754,0A1.288,1.288,0,0,0,40.372,39.364ZM23.532,34.174A10.187,10.187,0,0,1,13.488,23.867,10.193,10.193,0,0,1,23.532,13.555a10.313,10.313,0,0,1,0,20.619Z" transform="translate(-11 -11)" fill="#fff"/>
        <g id="Group_1094" data-name="Group 1094" transform="translate(6.557 7.314)">
          <line id="Line_284" data-name="Line 284" y2="11.603" transform="translate(5.801)" fill="none" stroke="#fff" stroke-linecap="round" stroke-width="2"/>
          <line id="Line_285" data-name="Line 285" x2="11.603" transform="translate(0 5.801)" fill="none" stroke="#fff" stroke-linecap="round" stroke-width="2"/>
        </g>
      </g>
    </g>
  </g>
</svg>
